<?xml version="1.0" encoding="utf-8"?>
<!-- Generator: Adobe Illustrator 22.0.1, SVG Export Plug-In . SVG Version: 6.00 Build 0)  -->
<svg version="1.1" xmlns="http://www.w3.org/2000/svg" xmlns:xlink="http://www.w3.org/1999/xlink" x="0px" y="0px"
	 viewBox="0 0 792 612" style="enable-background:new 0 0 792 612;" xml:space="preserve">
<style type="text/css">
	.st0{fill:#6E1011;}
	.st1{fill:#6E1011;stroke:#6E1111;stroke-miterlimit:10;}
	.st2{fill:#6E1111;}
	.st3{fill:none;stroke:#6E1111;stroke-miterlimit:10;}
	.st4{fill:#FEC23A;}
	.st5{fill:#F89841;}
	.st6{fill:none;stroke:#FEC23A;stroke-miterlimit:10;}
</style>
<g id="Layer_1">
	<g>
		<g id="XMLID_1_">
			<g>
				<path class="st0" d="M670.8,276.8v-29.6H708v29.7c0,0.2,0,0.3,0.1,0.5v16.2h28v-16.5c0.1-0.2,0.1-0.4,0.1-0.7v-29.2h37.4v25
					v67.5h0.1v25H736v-25c0,0,0,0,0,0h0.1v-21.3h-28v18.7v27.6h-37.5v-25h0v-62.1C670.7,277.4,670.8,277.1,670.8,276.8z"/>
				<path class="st0" d="M650.7,245.6v18.7h-20.9c-0.1,0-0.2,0-0.4,0H627v49.1c0,0,0,0,0,0v20.2h-21V315h0v-50.6h-2.4
					c-0.1,0-0.2,0-0.4,0h-20.9v-18.7H650.7z"/>
				<path class="st0" d="M558.4,260.8v56c-0.4,1.5-0.2,2.9-0.4,4.5c-0.2,1.6-0.7,3.1-1.4,4.5l-4.9,4.9c-2.6,1.5-5.3,2.7-8.2,3h-26
					c-3.3-0.5-6.2-1.7-8.8-3.7c0,0,0,0,0,0c-1.1-1-2.1-2.1-3.1-3.2c-2.4-2.6-3.1-5.7-3.4-8.9v-55.4c0.5-3.6,1.4-7.2,3.3-10.3
					c0.1-0.2,0.3-0.4,0.4-0.6l3.5-3.6c1.5-1,3.2-1.7,5-2.3l31.5-0.1c1,0.6,2.3,0.9,3.4,1.4c0.7,0.4,1.4,0.8,2.1,1.2l5.3,5.3
					c0.5,1.1,0.8,2.2,1,3.5C557.9,258.3,558.1,259.5,558.4,260.8z M537.3,312.3v-45.4l-0.2-0.1c0-0.7-0.4-1.3-0.9-1.7l0,0
					c-0.1-0.1-0.2-0.2-0.3-0.2c-0.7-0.5-1.5-0.6-2.3-0.5h-7.4l-0.1,0.1c-0.6,0-1.2,0.2-1.7,0.7c-0.5,0.4-1,1-1.2,1.7
					c0,0,0,0.1,0,0.1l-0.2,0.2v45.4l0.1,0.1c0.1,1,1.7,2,2.9,2.4l0.3,0.2h7.4c0.1,0,0.2,0,0.2,0h0.2l0.1-0.1
					c0.7-0.2,1.2-0.8,1.9-1.2c0.5-0.3,1-0.7,1.1-1.2L537.3,312.3z"/>
				<path class="st0" d="M473.1,315v18.8H452V315h0v-22l-17.1,40.8h-12L405.8,293v22h0c0,0,0,0,0,0v18.7h-21.1V315h0v-50.6h0v-18.8
					H407l21.8,52.2l21.8-52.2H473v22c0,0.2,0,0.3,0,0.4V315z"/>
				<path class="st0" d="M350.5,315v18.8h-21.1V315h0.1v-22l-17.1,40.8h-12L283.2,293v22h0v18.8h-21.1V315h0v-50.2c0,0,0,0,0-0.1
					c0.4-4.2,0.2-8.7-0.2-13.1v-6.1h22.5l21.8,52.2l21.8-52.2h22.4v22c0,0,0,0.1,0,0.1L350.5,315L350.5,315z"/>
				<path class="st0" d="M229.7,333.8h-0.5h-0.1h-18.3c-0.7-2.8-1.8-5.5-2.4-8.4c-0.8-3.4-1.1-6.9-1.9-10.4h0l-1.4-7.9h-13l-1.3,7.5
					c0,0.1,0,0.1-0.1,0.2c-0.5,3.5-1.7,6.7-2.1,10.2c-0.3,3-0.7,5.9-1,8.8h-20c0.1-0.9,0.1-1.8,0.1-2.7c0.6-4.8,1.8-9.5,2.5-14.2
					c0.8-6.3,1.8-12.4,2.9-18.6c0-0.2,0.1-0.3,0.1-0.5v0L180,265c0.1-0.3,0.2-0.6,0.3-1c0.5-2.8,0.8-5.6,1.3-8.4
					c0.6-3.4,1.4-6.7,2.1-10.1H213c0.8,6.6,2.7,13,4.3,19.5c0.1,0.2,0.1,0.3,0.2,0.5l9.7,47.6c0,0.1,0,0.1,0,0.2
					c0,0.1,0.1,0.2,0.1,0.4l0.3,1.4c0.1,0.6,0.2,1.2,0.3,1.7c0,0.3,0,0.5,0.1,0.8C229,322.9,228.9,328.4,229.7,333.8z M203,295.1
					l-4.4-25.4l-4.4,25.4H203z"/>
				<path class="st0" d="M138.1,333.8v25.1H110v-25.7c0-0.2,0-0.4-0.1-0.6v-28.2L87,358.9h-16l-22.9-54.5v29c0,0.1,0,0.2,0,0.4v25.1
					H19.9v-25.1h0.2v-67.6v-25.1h29.8L79,310.8l29.1-69.7h30v25.1h0v67.6H138.1z"/>
			</g>
			<g>
			</g>
		</g>
	</g>
</g>
<g id="Layer_3">
	<path class="st0" d="M25,351.7l-9.6-6.8l-2.2,3.2c-0.1-0.1-0.2-0.1-0.3-0.2c-0.6-0.5-1.4-0.8-2.2-0.5c-1.2,0.4-2.2,1.8-1.7,3.1
		c0.3,0.9,1,1.7,1.8,2l9.2,6.5L25,351.7z"/>
	
		<rect x="62.7" y="341.2" transform="matrix(0.7538 0.6571 -0.6571 0.7538 246.3269 39.7211)" class="st0" width="14.9" height="14.9"/>
	
		<rect x="115.7" y="319.5" transform="matrix(0.8183 0.5747 -0.5747 0.8183 208.2485 -11.063)" class="st0" width="11.8" height="8.9"/>
	<path class="st0" d="M105.5,344.9l-1.9,2.7c-0.2-0.1-0.5-0.2-0.8-0.3c-0.3-0.1-0.5-0.3-0.8-0.3c-0.8-0.1-1.5-0.1-2.2,0.4
		c-0.6,0.5-1,1.2-1,2c0,1.3,0.7,2,1.6,2.7l0,0l9.6,6.8l5.1-7.3L105.5,344.9z"/>
	<path class="st0" d="M131.2,236.3c-0.7-0.7-1.4-1.4-2.2-2c-1.2-1.2-3-3.1-4.8-1.8c-0.6,0.5-1,1.1-1.2,1.8c-0.3,0.7-0.3,1.6,0,2.4
		c0.4,1.2,1.1,2,1.9,2.7l-1.6,2.2l9.6,6.8l5.1-7.3L131.2,236.3z"/>
	
		<rect x="36.6" y="237.2" transform="matrix(0.8183 0.5747 -0.5747 0.8183 146.5651 19.4899)" class="st0" width="11.8" height="8.9"/>
	<line class="st1" x1="157.6" y1="324.4" x2="167.9" y2="333.4"/>
	<path class="st2" d="M171.2,328.7c0.3-0.8,0.1-1.8-0.4-2.6c0,0,0-0.1,0-0.1c0-1.2-1.1-2.6-2.5-2.5c-0.5,0.1-1,0.2-1.4,0.4
		c-0.3-0.6-0.8-1.1-1.5-1.3c-0.7-0.2-1.4-0.3-2.2-0.2c-0.3,0-0.5,0-0.8,0c0,0,0,0,0,0c-0.8-0.5-1.7-0.6-2.5-0.1
		c-1.1,0.7-1.7,2.3-0.9,3.4c0.5,0.7,1.1,1.2,1.8,1.4c1,0.7,2.2,1,3,2c0.6,0.8,1.4,1.3,2.1,1.9c0.5,0.6,1.1,1.1,1.7,1.5
		c2.2,1.5,4.3-1.1,3.5-3.2C171.2,329.2,171.2,329,171.2,328.7z"/>
	<g>
		<g>
			<path class="st2" d="M167.4,333c0,0.2,0.1,0.4,0.2,0.6c0.1,0.1,0.2,0.1,0.3,0.1c0.2,0,0.4-0.1,0.6-0.1c0.3-0.1,0.2-0.6-0.1-0.5
				c-0.2,0-0.4,0.1-0.6,0.1c0.1,0,0.2,0.1,0.3,0.1c-0.1-0.2-0.2-0.3-0.2-0.5C167.8,332.6,167.3,332.7,167.4,333L167.4,333z"/>
		</g>
	</g>
	<g>
		<g>
			<path class="st2" d="M167.5,333.5c0,0.1,0.1,0.2,0.1,0.2c0.1-0.1,0.2-0.2,0.3-0.3c0,0-0.1,0-0.1-0.1c-0.3-0.2-0.5,0.2-0.3,0.4
				c0,0,0,0,0.1,0c0.3,0.2,0.5-0.2,0.3-0.4c0,0,0,0-0.1,0c-0.1,0.1-0.2,0.3-0.3,0.4c0,0,0.1,0,0.1,0.1c0.2,0.1,0.5-0.1,0.3-0.3
				c-0.1-0.1-0.1-0.1-0.1-0.2C167.8,332.9,167.4,333.2,167.5,333.5L167.5,333.5z"/>
		</g>
	</g>
	<line class="st1" x1="200.7" y1="324.4" x2="211.1" y2="333.4"/>
	<g>
		<g>
			<path class="st2" d="M202.9,325.8c0.5,0.3,0.7,0.7,1.1,1.1c0.5,0.7,1.1,1.4,1.7,2.1c1.3,1.2,2.8,2.3,4.2,3.2
				c2.7,1.8,5.2-2.5,2.5-4.3c-1.4-0.9-2.8-1.9-3.8-3.1c-1-1.2-1.7-2.6-3.1-3.3C202.6,320,200,324.3,202.9,325.8L202.9,325.8z"/>
		</g>
	</g>
	<g>
		<g>
			<path class="st2" d="M210.6,333.3c0,0.1,0.1,0.2,0.1,0.4c0.1-0.1,0.3-0.2,0.4-0.3c0,0,0,0,0-0.1c-0.1-0.2-0.6-0.1-0.5,0.2
				c0,0,0,0.1,0,0.1c0.1,0.3,0.6,0.2,0.5-0.1c0,0,0-0.1,0-0.1c-0.2,0.1-0.3,0.1-0.5,0.2c0,0,0,0,0,0.1c0.2,0.3,0.6,0,0.4-0.3
				c0-0.1-0.1-0.2-0.1-0.2C211,332.8,210.5,333,210.6,333.3L210.6,333.3z"/>
		</g>
	</g>
	<line class="st1" x1="202.1" y1="236.9" x2="212.8" y2="246.1"/>
	<g>
		<g>
			<path class="st2" d="M211.5,246.4c-0.3-1-0.8-1.8-1.5-2.6c-0.7-0.7-1.6-1-2.3-1.7c-0.6-0.7-1.1-1.4-1.8-1.9
				c-0.3-0.3-0.7-0.5-1.1-0.7c-0.2-0.1-1-0.6-0.8-0.3c-0.8-1.1-2.2-1.6-3.4-0.9c-1.1,0.6-1.7,2.3-0.9,3.4c1,1.4,2.6,1.8,3.6,3
				c0.5,0.6,1,1.2,1.6,1.7c0.5,0.4,1.5,0.7,1.7,1.4C207.7,250.7,212.5,249.4,211.5,246.4L211.5,246.4z"/>
		</g>
	</g>
	<line class="st1" x1="252" y1="324.4" x2="262.3" y2="333.3"/>
	<g>
		<g>
			<path class="st2" d="M256.7,321.1c-0.5,0.2-0.9,0.4-1.4,0.7c-0.2,0.2-1.1,1-0.3,0.4c0.4-0.1,0.8-0.2,1.3-0.3c-0.1,0-0.3,0-0.4,0
				c0.4,0.1,0.8,0.2,1.3,0.3c-0.1,0-0.1,0-0.2-0.1c-0.4,1.4-0.7,2.8-1.1,4.2c0.2,0,0.3,0,0.5-0.1c-0.4,0-0.9,0-1.3,0
				c0.6,0.1,0.8,0.6,1.2,1c0.5,0.6,1,1,1.5,1.4c0.8-1.4,1.7-2.9,2.5-4.3c-0.7-0.4-1.3-0.8-2-1.2c-0.6,1.5-1.3,3-1.9,4.6
				c0.9,0.4,1.6,1.2,2.3,1.8c0.9,0.8,1.7,1.6,2.6,2.5c1.8,1.7,4.9,0,4.2-2.4c-0.5-1.6-1.1-3.2-2-4.6c-1.7-2.7-6.1-0.2-4.3,2.5
				c0.7,1.1,1.2,2.1,1.5,3.4c1.4-0.8,2.8-1.6,4.2-2.4c-2.2-2.1-4.2-4.4-7.1-5.6c-2.6-1.1-4.4,3.2-1.9,4.6c0.7,0.4,1.4,0.8,2,1.2
				c1.1,0.7,2.8,0.2,3.4-0.9c0.7-1.3,0.2-2.6-0.9-3.4c-0.8-0.6-1.2-1.7-2.2-2.3c-1.1-0.7-2.2-0.8-3.5-0.6c-1.8,0.3-2.5,3-1.1,4.2
				c0.9,0.8,1.9,1.4,3.2,1.1c1.1-0.2,1.7-0.9,2.2-1.5c-0.4,0.2-0.7,0.4-1.1,0.6c0.1,0,0.2-0.1,0.3-0.1c1.3-0.5,2.1-1.7,1.7-3.1
				C259.5,321.7,258,320.6,256.7,321.1L256.7,321.1z"/>
		</g>
	</g>
	<g>
		<g>
			<path class="st2" d="M261.9,332.9c0,0.2,0.1,0.4,0.1,0.7c0,0.3,0.5,0.2,0.5-0.1c0-0.2-0.1-0.4-0.1-0.7
				C262.3,332.5,261.8,332.6,261.9,332.9L261.9,332.9z"/>
		</g>
	</g>
	<g>
		<g>
			<path class="st2" d="M261.9,333c-0.1,0.2-0.1,0.4,0,0.6c0.1,0.3,0.6,0.2,0.5-0.1c0-0.1,0-0.1,0-0.2
				C262.5,333,262.1,332.8,261.9,333L261.9,333z"/>
		</g>
	</g>
	<line class="st1" x1="290.1" y1="324.3" x2="300.2" y2="333.2"/>
	<g>
		<g>
			<path class="st2" d="M299.3,325.1c0.1,0-0.4-0.3-0.6-0.4c-0.4-0.3-0.8-0.5-1.1-0.8c-0.8-0.6-1.5-1.1-2.2-1.9
				c-1.2,1.2-2.4,2.4-3.5,3.5c2.6,2.3,4.8,6.1,8.4,6.8c3.1,0.6,4.5-4.2,1.3-4.8c-1.4-0.3-2-1.2-2.9-2.2c-1-1.1-2.1-2.2-3.3-3.3
				c-2.4-2.1-5.7,1.1-3.5,3.5c1,1.1,2.3,2,3.5,2.9c1.2,0.9,2.3,1.6,3.9,1.6C302.6,330.1,302.6,325.1,299.3,325.1L299.3,325.1z"/>
		</g>
	</g>
	<g>
		<g>
			<path class="st2" d="M299.7,332.9c0,0.2,0.1,0.3,0.1,0.5c0.1-0.1,0.3-0.2,0.4-0.2c0,0-0.1-0.1-0.1-0.1c-0.1-0.2-0.4,0-0.4,0.2
				c0,0.8,1,0.5,1.5,0.5c0.3,0,0.2-0.5-0.1-0.5c-0.1,0-0.9,0.2-0.9,0c-0.1,0.1-0.3,0.1-0.4,0.2c0,0,0.1,0.1,0.1,0.1
				c0.2,0.2,0.5,0,0.4-0.2c-0.1-0.2-0.1-0.3-0.1-0.5C300.1,332.4,299.6,332.5,299.7,332.9L299.7,332.9z"/>
		</g>
	</g>
	<g>
		<g>
			<path class="st2" d="M301.2,332.8c-0.5-0.3-0.9-0.6-1.2-1c-0.2-0.2-0.5,0.1-0.4,0.3c0.2,0.3,0.4,0.5,0.6,0.6
				c0.3,0.2,0.5-0.3,0.3-0.4c-0.2-0.1-0.3-0.3-0.4-0.5c-0.1,0.1-0.3,0.2-0.4,0.3c0.4,0.5,0.8,0.8,1.3,1.1
				C301.2,333.4,301.4,332.9,301.2,332.8L301.2,332.8z"/>
		</g>
	</g>
	<line class="st3" x1="339.4" y1="236.9" x2="349.9" y2="245.6"/>
	<g>
		<g>
			<path class="st2" d="M344.9,243.2c-0.8-0.3-1.6-0.4-2.4-0.4c-1.6,0-2.9,1.6-2.4,3.2c1,3,6.4,4,6.6,0c0.1-3.3-5-5.6-6.8-2.4
				c-1.8,3,2.4,6.5,5.3,4.8c1.6-0.9,1.6-2.9,0.8-4.4c-0.7-1.4-1.8-2.1-3.1-2.8c0.3,0.3,0.6,0.6,0.9,0.9c0.2,0.4-0.2-0.5-0.2-0.6
				c-0.2-0.4-0.3-0.7-0.5-1.1c-0.4-0.7-0.9-1.3-1.5-1.9c-1.2,1.2-2.4,2.4-3.5,3.5c1.4,1.2,3,2.3,4.3,3.5c1.2,1.1,2.1,2.2,3.5,3.1
				c2.7,1.8,5.2-2.6,2.5-4.3c-1.1-0.7-1.9-1.8-2.9-2.7c-1.3-1.1-2.6-2.1-3.9-3.1c-1.1-0.8-2.5-1-3.5,0c-0.9,0.9-1,2.6,0,3.5
				c0.8,0.8,0.9,1.7,1.5,2.5c0.5,0.7,1,0.8,1.6,1.3c0.4,0.3,0.4,0.6,0.4,0.3c0.4-0.7,0.8-1.4,1.2-2.2c-0.1,0-0.1,0.1-0.2,0.1
				c0.4-0.1,0.8-0.2,1.3-0.3c-0.1,0-0.1-0.1,0,0c0.2,0.4,0.4,0.7,0.6,1.1c0-0.1-0.1-0.2-0.1-0.4c0,0.4,0,0.9,0,1.3
				c0-0.1,0.1-0.2,0.1-0.3c-0.4,0.5-0.8,1-1.1,1.5c0.1-0.1,0.3-0.1,0.4-0.2c-0.4,0.1-0.8,0.2-1.3,0.3c-0.1-0.2-0.2-0.2-0.1,0
				c-0.2-0.4-0.4-0.7-0.6-1.1c0,0,0,0,0-0.1c0.1-0.4,0.2-0.8,0.3-1.3c-0.1,0.1-0.1,0.2-0.2,0.2c0.5-0.4,1-0.8,1.5-1.1
				c-0.1,0-0.2,0-0.3,0.1c0.4,0,0.9,0,1.3,0c0,0,0,0,0,0c0.2,0.4,0.4,0.7,0.6,1.1c0-0.1-0.1-0.2-0.1-0.3c-0.8,1.1-1.6,2.1-2.4,3.2
				c0.5,0,0.6,0,1.1,0.2C346.6,249.1,347.9,244.2,344.9,243.2L344.9,243.2z"/>
		</g>
	</g>
	<g>
		<g>
			<path class="st2" d="M349.9,245.6c0,0.1-0.2,0-0.1,0.2c0,0,0.1,0.1,0.1,0.1c0.2,0.1,0.4-0.1,0.4-0.3c0-0.2,0-0.2-0.1-0.3
				C350.1,245.4,350,245.5,349.9,245.6c-0.1,0.1-0.1,0.2,0,0.2c-0.1,0.3,0.4,0.4,0.5,0.1c0.1-0.3,0-0.5-0.2-0.7
				c-0.2-0.2-0.5,0.1-0.4,0.3c0,0.1,0,0.1,0.1,0.2c0.1-0.1,0.2-0.2,0.4-0.3c0.1,0-0.1-0.2-0.1-0.2c-0.1-0.1-0.2-0.1-0.3-0.1
				c-0.2,0-0.4,0.1-0.4,0.3C349.4,245.8,349.9,245.9,349.9,245.6L349.9,245.6z"/>
		</g>
	</g>
	<g>
		<g>
			<path class="st2" d="M350.3,246.6c0.1-0.3,0.2-0.7,0.2-1c-0.1-0.3-0.4-0.3-0.5-0.6c-0.1,0.1-0.2,0.2-0.3,0.4
				c0.1,0.1,0.2,0.1,0.3,0.2c0.2,0.3,0.6,0,0.4-0.3c-0.1-0.2-0.3-0.4-0.6-0.4c-0.2,0-0.4,0.2-0.3,0.4c0.1,0.2,0.2,0.2,0.3,0.3
				c0.2,0.2,0,0.6,0,0.8C349.7,246.8,350.2,246.9,350.3,246.6L350.3,246.6z"/>
		</g>
	</g>
	<line class="st3" x1="319.1" y1="324.4" x2="329.1" y2="333.2"/>
	<g>
		<g>
			<path class="st2" d="M328.7,333.2c0.1,0.2,0.3,0.3,0.4,0.3c0-0.2,0.1-0.3,0.1-0.5c0,0-0.1,0-0.1-0.1c-0.2-0.2-0.5,0.1-0.4,0.3
				c0.1,0.1,0.1,0.2,0.2,0.3c0.1-0.1,0.2-0.2,0.4-0.4c-0.1-0.1-0.2-0.2-0.3-0.3c-0.2-0.2-0.5,0-0.4,0.3c0.3,0.5,0.8,0.6,1.3,0.4
				c0.3-0.2,0-0.6-0.3-0.4c-0.2,0.1-0.5,0-0.6-0.2c-0.1,0.1-0.3,0.2-0.4,0.3c0.1,0.1,0.2,0.2,0.3,0.3c0.2,0.2,0.6-0.1,0.4-0.4
				c-0.1-0.1-0.1-0.1-0.2-0.2c-0.1,0.1-0.3,0.2-0.4,0.3c0.1,0.2,0.3,0.2,0.5,0.2c0.2,0,0.4-0.4,0.1-0.5c-0.1-0.1-0.2-0.1-0.3-0.3
				C328.9,332.6,328.5,332.9,328.7,333.2L328.7,333.2z"/>
		</g>
	</g>
	<g>
		<g>
			<path class="st2" d="M329.3,332.9c-0.1-0.1-0.3-0.2-0.4-0.3c-0.1,0.1-0.2,0.2-0.3,0.3c0.3,0.2,0.6,0.3,0.9,0.4
				c0.3,0.1,0.4-0.3,0.2-0.5c-0.2-0.1-0.3-0.2-0.5-0.3c-0.3-0.2-0.5,0.3-0.3,0.4c0.1,0,0.1,0.1,0.2,0.1c0.1-0.1,0.1-0.3,0.2-0.4
				c-0.1,0-0.2,0-0.2,0c-0.2,0-0.4,0.3-0.2,0.4c0.1,0.1,0.3,0.2,0.4,0.3c0.2,0.2,0.6-0.2,0.4-0.4c-0.1-0.1-0.3-0.2-0.4-0.3
				c-0.1,0.1-0.1,0.3-0.2,0.4c0.1,0,0.2,0,0.2,0c0.2,0,0.3-0.3,0.2-0.4c-0.1-0.1-0.1-0.1-0.3-0.2c-0.1,0.1-0.2,0.3-0.3,0.4
				c0.2,0.1,0.3,0.2,0.5,0.3c0.1-0.2,0.1-0.3,0.2-0.5c-0.3-0.1-0.5-0.2-0.7-0.3c-0.2-0.1-0.5,0.1-0.3,0.3c0.2,0.2,0.3,0.4,0.5,0.5
				C329.3,333.5,329.6,333,329.3,332.9L329.3,332.9z"/>
		</g>
	</g>
	<g>
		<g>
			<path class="st2" d="M328.1,323.1c-1.4-0.1-2.7,1-2.9,2.4c-0.3,1.8,1.2,3.2,2.7,4c2.8,1.6,5.2-2.6,2.5-4.3
				c-1.5-1-3.7-1.1-4.7,0.7c-1.3,2.3,1,3.4,1.9,5.1c0.9-1.2,1.9-2.4,2.8-3.7c-0.2-0.1-0.4-0.1-0.5-0.2c-2.5-0.9-4,2.5-2.4,4.2
				c0.5,0.6,1,0.9,1.6,1.4c2.2,1.7,5.2-2.1,3-3.9c-2.7-2.2-5.3-4.3-8.1-6.4c-0.6,1.4-1.2,2.8-1.8,4.3c4.9,0.5,9.8,0.9,14.7,1
				c-0.7-1.3-1.4-2.5-2.2-3.8c-0.1,0.1-0.2,0.3-0.3,0.4c-2,2.6,2.4,5,4.3,2.5c0.1-0.1,0.2-0.3,0.3-0.4c1.2-1.6-0.5-3.7-2.2-3.8
				c-4.9-0.1-9.8-0.5-14.7-1c-2.1-0.2-3.4,3-1.8,4.3c2.7,2.1,5.4,4.2,8.1,6.4c1-1.3,2-2.6,3-3.9c-0.2-0.2-0.4-0.4-0.6-0.6
				c-0.8,1.4-1.6,2.8-2.4,4.2c0.2,0.1,0.4,0.1,0.5,0.2c2.1,0.7,3.8-1.9,2.8-3.7c-0.1-0.1-1.7-2.3-1.6-1.3c-0.2,0.6-0.5,1.2-0.7,1.8
				c0.1-0.1,0.2-0.2,0.3-0.2c-0.6,0.2-1.2,0.5-1.8,0.7c-0.1,0-0.2,0-0.3,0.1c0.8-1.4,1.7-2.9,2.5-4.3c-0.1,0-0.2,0-0.3-0.1
				c-0.2,0.8-0.4,1.6-0.6,2.4c0.1-0.1,0.1-0.2,0.2-0.2c-0.6,0.2-1.2,0.5-1.8,0.7c0.1,0,0.2,0,0.3,0
				C331.3,328.3,331.3,323.3,328.1,323.1L328.1,323.1z"/>
		</g>
	</g>
	<line class="st3" x1="273.6" y1="236.8" x2="284" y2="245.9"/>
	<g>
		<g>
			<path class="st2" d="M275.7,246.3c1.5,0.4,2.9,1.1,4.1,2.1c0.6-1.4,1.2-2.8,1.8-4.3c-1,0-1.8-1.2-2.4-1.9
				c-1.1-1.1-2.1-2.2-3.2-3.3c-2.2-2.3-5.8,1.2-3.5,3.5c2.5,2.6,5.2,6.7,9.2,6.7c2,0,3.5-2.8,1.8-4.3c-1.9-1.6-3.9-2.8-6.3-3.4
				C273.9,240.7,272.6,245.5,275.7,246.3L275.7,246.3z"/>
		</g>
	</g>
	<line class="st3" x1="396.4" y1="237.1" x2="406.6" y2="246"/>
	<g>
		<g>
			<path class="st2" d="M400.4,247.8c0.7,0.2,1.4,0.4,2.2,0.6c0-1.6,0-3.2,0-4.8c-0.1,0-0.2,0-0.3,0c0.4,0,0.9,0,1.3,0
				c0.5,0.2-0.2-0.2-0.3-0.3c-0.2-0.1-0.4-0.3-0.6-0.4c-0.4-0.3-0.8-0.7-1.2-1.1c-0.9-0.9-1.8-1.9-2.7-2.8c-2.2-2.3-5.8,1.2-3.5,3.5
				c1.2,1.3,2.4,2.7,3.8,3.9c0.6,0.5,1.3,1,2,1.5c0.9,0.6,1.7,0.7,2.9,0.5c2.5-0.4,2.2-4.2,0-4.8c-0.7-0.2-1.4-0.4-2.2-0.6
				C398.6,242.2,397.2,247,400.4,247.8L400.4,247.8z"/>
		</g>
	</g>
	<g>
		<g>
			<path class="st2" d="M397,237.6c-0.1-0.2-0.2-0.4-0.2-0.7c-0.2,0.1-0.3,0.1-0.5,0.2c0.1,0.1,0.2,0.2,0.2,0.3
				c0.2,0.3,0.6,0,0.4-0.3c-0.1-0.2-0.2-0.4-0.4-0.5c-0.2-0.2-0.6,0.1-0.4,0.4c0.1,0.1,0.2,0.3,0.3,0.4c0.1-0.1,0.3-0.2,0.4-0.3
				c-0.1-0.1-0.2-0.2-0.2-0.3c-0.2-0.2-0.5-0.1-0.5,0.2c0.1,0.3,0.2,0.5,0.3,0.8C396.7,238.1,397.1,237.9,397,237.6L397,237.6z"/>
		</g>
	</g>
	<g>
		<g>
			<path class="st2" d="M397.1,237.7c-0.1-0.4-0.5-1.6-1.1-0.9c-0.2,0.3,0.3,0.5,0.4,0.3c-0.1,0.2,0.1,0.6,0.2,0.7
				C396.7,238.1,397.2,238,397.1,237.7L397.1,237.7z"/>
		</g>
	</g>
	<line class="st3" x1="374.6" y1="324.2" x2="384.7" y2="333.3"/>
	<line class="st3" x1="412.7" y1="324.3" x2="423.1" y2="333.2"/>
	<line class="st3" x1="441.9" y1="324.1" x2="452" y2="333.3"/>
	<line class="st3" x1="461.9" y1="236.9" x2="472.1" y2="245.6"/>
	<line class="st3" x1="595.8" y1="324.2" x2="606" y2="333.2"/>
	<line class="st3" x1="661" y1="324.1" x2="671.1" y2="333"/>
	<g>
		<g>
			<path class="st2" d="M663.3,326.2c2.8,1.7,4.7,4.5,7.3,6.5c1.5,1.2,4.5,0.6,4.3-1.8c-0.2-2.4-0.9-4.6-2.3-6.5
				c-0.8-1.1-2.2-1.6-3.4-0.9c-1.1,0.6-1.7,2.3-0.9,3.4c0.9,1.2,1.5,2.5,1.7,4c1.4-0.6,2.8-1.2,4.3-1.8c-1.5-1.2-2.8-2.5-4.1-3.9
				c-1.2-1.4-2.6-2.4-4.2-3.4C663.1,320.2,660.6,324.5,663.3,326.2L663.3,326.2z"/>
		</g>
	</g>
	<g>
		<g>
			<path class="st2" d="M670.5,332.8c0.1,0.2,0.2,0.4,0.4,0.6c0.1,0.2,0.4,0.2,0.5-0.1c0.1-0.3-0.1-0.6-0.4-0.7
				c-0.2-0.1-0.3,0.1-0.3,0.3c0.1,0.3,0.1,0.5,0.3,0.7c0.1,0.2,0.5,0.1,0.5-0.1c0-0.1,0-0.1,0-0.2c0-0.3-0.5-0.3-0.5,0
				c0,0.1,0,0.1,0,0.2c0.2,0,0.3-0.1,0.5-0.1c-0.1-0.2-0.2-0.3-0.2-0.5c-0.1,0.1-0.2,0.2-0.3,0.3c0,0,0,0.1,0,0.1
				c0.2,0,0.3,0,0.5-0.1c-0.1-0.2-0.2-0.4-0.4-0.6C670.8,332.2,670.4,332.5,670.5,332.8L670.5,332.8z"/>
		</g>
	</g>
	<g>
		<g>
			<path class="st2" d="M670.4,332.8c0.2,0.3,0.4,0.5,0.6,0.8c0.2,0.2,0.6-0.1,0.4-0.4c-0.2-0.2-0.4-0.4-0.5-0.7
				C670.7,332.3,670.2,332.6,670.4,332.8L670.4,332.8z"/>
		</g>
	</g>
	<g>
		<g>
			<path class="st2" d="M732.1,333.7c0.1,0.3,0.4,0.3,0.6,0.3c0.3-0.1,0.2-0.6-0.1-0.5c0,0,0,0-0.1,0
				C732.4,333.2,732,333.4,732.1,333.7L732.1,333.7z"/>
		</g>
	</g>
	<g>
		<g>
			<path class="st2" d="M759.3,246c0.2,0.1,0.5,0.2,0.7,0.4c0.2,0.1,0.4-0.1,0.4-0.3c-0.1-0.3-0.3-0.6-0.6-0.7
				c-0.3-0.1-0.5,0.3-0.3,0.4c0.2,0.1,0.4,0.3,0.5,0.5c0.2,0.3,0.6,0,0.4-0.3c-0.2-0.3-0.4-0.5-0.7-0.7c-0.1,0.1-0.2,0.3-0.3,0.4
				c0.2,0.1,0.3,0.2,0.3,0.4c0.1-0.1,0.2-0.2,0.4-0.3c-0.2-0.1-0.5-0.2-0.7-0.4C759.3,245.5,759,245.9,759.3,246L759.3,246z"/>
		</g>
	</g>
	<g>
		<g>
			<path class="st2" d="M466.1,241.8c-0.2-0.2-0.4-0.4-0.5-0.5c-1.6-1.6-4.2-0.4-4.3,1.8c0,1.1,0.2,2.1,0.7,3.1c0.6,1.1,2,1.5,3.1,1
				c1.2-0.5,1.7-1.7,1.4-2.9c-0.3-1.8-1-3.5-2-5c-1.3,1-2.6,2-3.9,3c2.1,2.4,4.6,4.3,6.9,6.4c2.4,2.1,6-1.4,3.5-3.5
				c-2.4-2.1-4.9-4-6.9-6.4c-1.9-2.1-5.5,0.7-3.9,3c0.8,1.2,1.2,2.4,1.5,3.8c1.5-0.6,3-1.3,4.6-1.9c-0.1-0.2-0.1-0.3-0.1-0.5
				c-1.4,0.6-2.8,1.2-4.3,1.8c0.2,0.2,0.4,0.4,0.5,0.5C464.8,247.6,468.3,244.1,466.1,241.8L466.1,241.8z"/>
		</g>
	</g>
	<g>
		<g>
			<path class="st2" d="M471.4,245.7c0.3,0.2,0.7,0.4,1,0.5c0.2,0.1,0.4-0.2,0.2-0.4c-0.2-0.2-0.4-0.4-0.6-0.7
				c-0.1,0.1-0.2,0.3-0.3,0.4c0.3,0.2,0.5,0.3,0.7,0.5c0.2,0.2,0.6-0.1,0.4-0.4c-0.3-0.2-0.5-0.4-0.8-0.6c-0.2-0.1-0.5,0.2-0.3,0.4
				c0.2,0.2,0.4,0.4,0.6,0.7c0.1-0.1,0.2-0.3,0.2-0.4c-0.3-0.1-0.6-0.2-0.9-0.4C471.4,245,471.2,245.5,471.4,245.7L471.4,245.7z"/>
		</g>
	</g>
	<path class="st3" d="M640,237.3c3.4,2.8,6.8,5.7,10.2,8.5"/>
	<line class="st3" x1="572.2" y1="254.9" x2="582.3" y2="263.9"/>
	<g>
		<g>
			<path class="st2" d="M578.2,252.6c-0.8-0.3-1.6-0.4-2.4-0.4c-2.5,0-3.4,3.3-1.3,4.7c2.8,1.8,4.2,5.3,7.4,6.5
				c1.4,0.6,3.3-0.9,3.2-2.4c-0.2-2-0.6-3.7-1.5-5.5c-0.5-1.2-2.3-1.5-3.4-0.9c-1.3,0.7-1.4,2.2-0.9,3.4c0.4,0.9,0.7,2,0.8,3
				c1.1-0.8,2.1-1.6,3.2-2.4c-0.2-0.1-0.8-1-1.1-1.3c-0.5-0.6-1-1.2-1.5-1.7c-1.1-1.2-2.3-2.2-3.6-3c-0.4,1.6-0.8,3.1-1.3,4.7
				c0.5,0,0.6,0,1.1,0.2c1.3,0.5,2.7-0.5,3.1-1.7C580.4,254.3,579.5,253.1,578.2,252.6L578.2,252.6z"/>
		</g>
	</g>
	<g>
		<g>
			<path class="st2" d="M645.3,243.9c-1.8-3-6.4-1.7-6.1,1.8c0.1,1.5,1.2,2.6,2.7,3c0.7,0.2,1.4,0.1,2.1,0c0.7-0.2,1.3-0.6,1.9-0.8
				c-0.4,0-0.9,0-1.3,0c0.4,0.2,0.9,0.5,1.3,0.7c0.4-1.6,0.8-3.1,1.3-4.7c-0.1,0-0.3,0-0.4,0c0.4,0.1,0.8,0.2,1.3,0.3
				c-1.3-0.6-2.6-1.5-3.7-2.5c-1-0.9-1.6-2.2-2.6-3.1c-1,1.3-2,2.6-3,3.9c1.8,0.9,3.3,2.1,4.6,3.6c2.2,2.4,5.7-1.1,3.5-3.5
				c-1.6-1.8-3.5-3.3-5.6-4.4c-2.4-1.3-5.3,2-3,3.9c0.7,0.6,1.1,1.2,1.7,2c0.6,0.8,1.2,1.3,2,1.9c1.5,1.2,3.3,2.8,5.3,2.8
				c2.4-0.1,3.5-3.4,1.3-4.7c-1.1-0.6-2.2-1.4-3.5-1.3c-0.5,0-1.1,0.2-1.5,0.5c-0.4,0.3-0.5,0.1-0.2,0.3c0.3,0.3,0.6,0.6,0.9,0.9
				c0,0,0,0,0,0c0,0.4,0,0.9,0,1.3c0,0,0,0,0,0.1c-0.3,0.3-0.6,0.6-0.9,0.9c0.1-0.1,0.2-0.1,0.3-0.2c-0.4,0.1-0.8,0.2-1.3,0.3
				c-0.1,0-0.3-0.1-0.4-0.1c-0.3-0.3-0.6-0.6-0.9-0.9c0.1,0.1,0.1,0.2,0.2,0.3C642.6,249.2,646.9,246.7,645.3,243.9L645.3,243.9z"/>
		</g>
	</g>
	<g>
		<g>
			<path class="st2" d="M605.8,324.9c-0.1,0-0.3-0.1-0.4-0.1c-1.7-0.5-3,0.9-3.2,2.4c-0.1,0.9,0.2,1.8,0.8,2.5
				c0.3,0.4,1.4,0.9,1.5,1.1c1.3-1,2.6-2,3.9-3c-0.6-0.6-1.2-0.9-2-1.2c-2.4-1-4.1,2.5-2.4,4.2c0.4,0.4,0.9,0.9,1.3,1.3
				c1.2-1.2,2.4-2.4,3.5-3.5c-2.6-2.1-5.2-4.3-7.9-6.4c-0.6,1.4-1.2,2.8-1.8,4.3c1.9,0,3.7,0.2,5.6,0.7c3.1,0.9,4.4-4,1.3-4.8
				c-2.2-0.6-4.6-0.9-6.9-0.9c-2,0.1-3.5,2.8-1.8,4.3c2.6,2.1,5.2,4.3,7.9,6.4c2.4,2,5.9-1.2,3.5-3.5c-0.4-0.4-0.9-0.9-1.3-1.3
				c-0.8,1.4-1.6,2.8-2.4,4.2c-0.1,0-0.1,0-0.2-0.1c2.1,1.9,5.2-0.5,3.9-3c-0.3-0.6-0.6-1-1.1-1.3c-0.3-0.2-0.9-0.5-0.9-0.7
				c0.1,0.4,0.2,0.8,0.3,1.3c0-0.1,0-0.3,0.1-0.4c-1.1,0.8-2.1,1.6-3.2,2.4c0.1,0,0.3,0.1,0.4,0.1
				C607.6,330.6,608.9,325.8,605.8,324.9L605.8,324.9z"/>
		</g>
	</g>
	<g>
		<g>
			<path class="st2" d="M605.5,332.2c0.1,0.2,0.3,0.3,0.3,0.5c0.1-0.1,0.3-0.2,0.4-0.3c-0.1-0.2-0.4-0.3-0.6-0.1
				c-0.4,0.3,0,0.6,0,0.9c0.1-0.1,0.3-0.1,0.4-0.2c-0.1-0.1-0.2-0.2-0.3-0.2c-0.2-0.2-0.5,0-0.4,0.2c0.1,0.7,1,0.7,1.5,0.5
				c0.3-0.1,0.2-0.6-0.1-0.5c-0.3,0.1-0.8,0.3-0.9-0.2c-0.1,0.1-0.3,0.2-0.4,0.2c0.1,0.1,0.2,0.2,0.3,0.2c0.2,0.1,0.4,0.1,0.4-0.2
				c0-0.1,0-0.2-0.1-0.3c0,0,0,0,0-0.1c0-0.1-0.1-0.2-0.3-0.2c0.1,0.3,0.6,0,0.4-0.3c-0.1-0.2-0.3-0.4-0.4-0.7
				C605.6,331.6,605.3,332,605.5,332.2L605.5,332.2z"/>
		</g>
	</g>
	<g>
		<g>
			<path class="st2" d="M698.2,245.5c0.1,0.1,0.3,0.2,0.5,0.3c0.2,0.1,0.5-0.2,0.3-0.4c-0.1-0.1-0.2-0.1-0.2-0.2
				c-0.1,0.1-0.2,0.2-0.3,0.3c0.4,0.2,0.2,1,0.2,1.4c0,0.3,0.5,0.3,0.5,0c0-0.3,0-0.5,0-0.8c0-0.1,0.1-0.4,0-0.5
				c-0.1-0.2-0.3-0.4-0.5-0.5c-0.2-0.1-0.5,0.1-0.3,0.3c0.1,0.1,0.2,0.2,0.3,0.3c0.1-0.1,0.2-0.3,0.3-0.4c-0.1-0.1-0.2-0.2-0.4-0.2
				C698.3,244.9,698,245.3,698.2,245.5L698.2,245.5z"/>
		</g>
	</g>
	<g>
		<g>
			<path class="st2" d="M649.9,246c0.2,0,0.3,0,0.5,0c0.3,0,0.3-0.5,0-0.5c-0.2,0-0.3,0-0.5,0C649.6,245.6,649.6,246.1,649.9,246
				L649.9,246z"/>
		</g>
	</g>
	<g>
		<g>
			<path class="st2" d="M650.1,245.8c0.1,0.1,0.1,0.1,0.2,0.2c0.2,0.2,0.6-0.1,0.4-0.4c-0.1-0.1-0.1-0.1-0.2-0.2
				C650.3,245.2,649.9,245.5,650.1,245.8L650.1,245.8z"/>
		</g>
	</g>
	<g>
		<g>
			<path class="st2" d="M640.6,237.9c-0.1-0.4-0.2-0.8-0.4-1.2c-0.1,0.1-0.3,0.2-0.4,0.3C640,237.3,640.3,237.7,640.6,237.9
				c0.1,0.4,0.6,0.1,0.4-0.2c-0.3-0.3-0.5-0.7-0.8-1c-0.2-0.3-0.6,0-0.4,0.3c0.2,0.3,0.3,0.7,0.3,1.1
				C640.2,238.4,640.6,238.2,640.6,237.9L640.6,237.9z"/>
		</g>
	</g>
	<g>
		<g>
			<path class="st2" d="M384,333.3c0.2,0.4,0.6,0.6,1.1,0.5c0.3-0.1,0.2-0.5-0.1-0.5c-0.2,0-0.4-0.1-0.5-0.3
				C384.3,332.7,383.8,333,384,333.3L384,333.3z"/>
		</g>
	</g>
	<g>
		<g>
			<path class="st2" d="M383.9,323.1c-0.3,0-0.6,0-0.9,0c-2.1,0.2-3.4,2.6-1.8,4.3c0.5,0.5,1.1,1,1.7,1.4c2.5,1.7,4.8-1.9,3-3.9
				c-0.6-0.7-1.5-1.3-2.4-1.6c-1-0.3-1.9-0.1-2.9-0.2c0.4,0.1,0.8,0.2,1.3,0.3c-0.8-0.3-1.6-0.9-2.2-1.6c-1.2,1.2-2.4,2.4-3.5,3.5
				c1.3,1.2,2.6,2.3,3.9,3.5c1.1,0.9,2.4,1.8,3.1,3c1.7,2.8,6,0.2,4.3-2.5c-0.9-1.5-2.2-2.5-3.5-3.6c-1.5-1.3-2.9-2.5-4.3-3.8
				c-2.4-2.1-5.8,1.2-3.5,3.5c0.9,0.9,2.1,1.8,3.2,2.3c0.7,0.3,1.4,0.4,2.2,0.3c0.7,0,0.5-0.2,0.9,0.3c1-1.3,2-2.6,3-3.9
				c-0.3-0.2-0.5-0.4-0.7-0.6c-0.6,1.4-1.2,2.8-1.8,4.3c0.3-0.1,0.6-0.1,0.9,0C387.2,328.2,387.2,323.2,383.9,323.1L383.9,323.1z"/>
		</g>
	</g>
	<g>
		<g>
			<path class="st2" d="M414.4,325.9c2.4,1.8,4.6,4,6.8,6.1c2.3,2.2,5.9-1.3,3.5-3.5c-2.5-2.4-5-4.8-7.8-6.9
				c-1.1-0.8-2.8-0.2-3.4,0.9C412.8,323.8,413.4,325.1,414.4,325.9L414.4,325.9z"/>
		</g>
	</g>
	<g>
		<g>
			<path class="st2" d="M422.4,333.2c0.2,0.1,0.3,0.2,0.4,0.3c0.1-0.1,0.3-0.2,0.4-0.3c-0.1-0.1-0.2-0.2-0.2-0.2
				c-0.2-0.2-0.6,0.1-0.4,0.4c0.1,0.1,0.2,0.2,0.3,0.3c0.1-0.1,0.2-0.2,0.4-0.4c-0.1-0.1-0.2-0.1-0.2-0.2c-0.2-0.2-0.5,0-0.4,0.3
				c0.1,0.2,0.2,0.3,0.3,0.4c0.3,0.2,0.5-0.3,0.3-0.4c-0.1-0.1-0.1-0.1-0.2-0.2c-0.1,0.1-0.3,0.2-0.4,0.3c0.1,0.1,0.2,0.1,0.2,0.2
				c0.2,0.2,0.6-0.1,0.4-0.4c-0.1-0.1-0.2-0.2-0.3-0.3c-0.1,0.1-0.2,0.2-0.4,0.4c0.1,0.1,0.2,0.2,0.2,0.2c0.2,0.2,0.6-0.1,0.4-0.3
				c-0.1-0.2-0.3-0.4-0.5-0.5C422.4,332.6,422.1,333,422.4,333.2L422.4,333.2z"/>
		</g>
	</g>
	<g>
		<g>
			<path class="st2" d="M451.5,333.3c0,0.1,0,0.2,0.1,0.2c0,0.1,0.1,0.2,0.2,0.2c0.2,0,0.4,0,0.6,0c0.3,0,0.3-0.5,0-0.5
				c-0.2,0-0.4,0-0.6,0c0.1,0.1,0.2,0.1,0.2,0.2c0-0.1,0-0.2-0.1-0.2C452,332.9,451.5,333,451.5,333.3L451.5,333.3z"/>
		</g>
	</g>
	<g>
		<g>
			<path class="st2" d="M453.5,324.3c-1.8-2.3-5.5-1-5.5,2c0,1.9,1.3,4.1,2.4,5.6c0.8,1.1,2.2,1.6,3.4,0.9c1.1-0.6,1.7-2.3,0.9-3.4
				c-0.4-0.6-0.8-1.2-1.2-1.9c-0.1-0.3-0.3-0.5-0.4-0.8c0-0.1-0.1-0.2-0.1-0.3c-0.2-0.6-0.2-0.4-0.2,0.7c-0.3,0.3-0.6,0.6-0.9,0.9
				c-0.1,0-0.1,0.1-0.2,0.1c-0.4,0-0.9,0-1.3,0c0.1,0,0.2,0.1,0.3,0.1c-0.4-0.2-0.7-0.4-1.1-0.6c0.2,0.1,0.3,0.3,0.4,0.4
				c0.8,1.1,2.7,0.9,3.5,0C454.5,326.8,454.3,325.4,453.5,324.3L453.5,324.3z"/>
		</g>
	</g>
	<g>
		<g>
			<path class="st2" d="M454,326.5c-0.7-0.6-1-1.3-1.6-1.9c-0.8-0.8-1.5-0.8-2.5-1.1c-0.5-0.1,0.4,0.2,0.2,0.1
				c-0.4-0.3-0.7-0.6-1-0.8c-0.4-0.3-0.8-0.4-1.2-0.6c-0.1,0-1-0.4-0.7-0.2c-2.5-2.1-5.7,1.1-3.5,3.5c1.6,1.8,3.2,3.5,5,5.1
				c2.4,2.2,5.9-1.3,3.5-3.5c-1.7-1.6-3.4-3.3-5-5.1c-1.2,1.2-2.4,2.4-3.5,3.5c0.9,0.8,2,1,2.9,1.6c0.5,0.3,0.8,0.7,1.3,1
				c0.5,0.3,1.5,0.4,1.8,0.5c-0.4-0.2-0.7-0.4-1.1-0.6c0.7,0.6,1.1,1.5,1.8,2.2C452.9,332.1,456.5,328.6,454,326.5L454,326.5z"/>
		</g>
	</g>
	<line class="st3" x1="498" y1="320.1" x2="508.7" y2="329"/>
	<g>
		<g>
			<path class="st2" d="M504.5,325.1c3.2,0,3.2-5,0-5C501.2,320.1,501.2,325.1,504.5,325.1L504.5,325.1z"/>
		</g>
	</g>
	<line class="st3" x1="542.7" y1="241.7" x2="552.9" y2="250.7"/>
	<g>
		<g>
			<path class="st4" d="M522.9,306.4c1.3-0.2,2.3-0.7,3.2-1.5c0.2-0.2-0.1-0.6-0.4-0.4c-0.9,0.8-1.9,1.2-3,1.4
				C522.4,306,522.6,306.4,522.9,306.4L522.9,306.4z"/>
		</g>
	</g>
	<g>
		<g>
			<path class="st4" d="M526.9,301.4c0,1.5-0.8,2.7-1.7,3.9c-0.2,0.2,0.1,0.6,0.4,0.4c1-1.2,1.8-2.6,1.9-4.2
				C527.4,301.1,526.9,301.1,526.9,301.4L526.9,301.4z"/>
		</g>
	</g>
	<line class="st3" x1="661.4" y1="356.4" x2="670.6" y2="364.1"/>
	<g>
		<g>
			<path class="st2" d="M671,355.3c-1.2-0.2-2.3-0.3-3.5-0.5c-0.2,0-0.4-0.1-0.6-0.1c-0.3-0.1-0.2,0,0.2,0.1c-0.4-0.5-1-0.7-1.6-0.9
				c-1-0.4-2.3,0.3-2.8,1.1c-0.6,1-0.3,2.2,0.4,3c0.9,1.1,1.8,2.2,3.1,2.8c1.4,0.7,2.6,1.7,3.9,2.5c1.1,0.8,2.8,0.2,3.4-0.9
				c0.7-1.2,0.2-2.6-0.9-3.4c-1.1-0.8-2.3-1.7-3.5-2.3c-0.4-0.2-0.7-0.3-1-0.6c-0.5-0.4-1-1.1-1.5-1.7c-0.8,1.4-1.6,2.8-2.4,4.2
				c0.1,0,0.2,0.1,0.3,0.1c-0.4-0.2-0.7-0.4-1.1-0.6c0.8,0.7,1.5,1.2,2.6,1.4c1.2,0.2,2.5,0.4,3.7,0.6c1.3,0.2,2.7-0.3,3.1-1.7
				C673.1,357.2,672.4,355.5,671,355.3L671,355.3z"/>
		</g>
	</g>
	<g>
		<g>
			<path class="st2" d="M671.1,364.1c-0.2-0.1-0.5-0.2-0.7-0.3c-0.2-0.1-0.4,0.1-0.3,0.3c0.1,0.4,0.4,0.6,0.8,0.6
				c0.3,0,0.3-0.5,0-0.5c-0.1-0.1-0.2-0.2-0.3-0.2c-0.1,0.1-0.2,0.2-0.3,0.3c0.2,0.1,0.5,0.2,0.7,0.3
				C671.2,364.7,671.4,364.2,671.1,364.1L671.1,364.1z"/>
		</g>
	</g>
	<line class="st3" x1="764" y1="239.3" x2="773.1" y2="247.2"/>
	<g>
		<g>
			<path class="st2" d="M768.5,245.5c-0.4-0.1-0.5-0.1-0.3,0c0.2,0.1,0.1,0-0.2-0.2c-0.1-0.2-0.2-0.4-0.3-0.6
				c-0.3-0.7-0.3-1.4-0.5-2.2c-0.6-2.1-3.2-2.9-4.8-1.3c-2.6,2.6,2.1,6.7,4.1,8c2.3,1.5,5.2-2.1,3-3.9c-0.5-0.4-1-0.9-1.3-1.5
				c-1.3,1-2.6,2-3.9,3c1.3,1.4,3.2,2.1,4.4,3.6c1-1.3,2-2.6,3-3.9c-1.8-1-2.8-2.8-4.6-3.9c-2.7-1.7-5.3,2.6-2.5,4.3
				c0.8,0.5,1.3,1.3,2,2c0.8,0.8,1.7,1.4,2.6,1.9c2.6,1.5,4.8-1.8,3-3.9c-1.2-1.5-3.1-2.2-4.4-3.6c-1.9-2.1-5.4,0.6-3.9,3
				c0.6,0.9,1.3,1.8,2.1,2.5c1-1.3,2-2.6,3-3.9c-1.1-0.7-2.2-1.8-2.7-3c0.1,0.4,0.2,0.8,0.3,1.3c0-0.1,0-0.1,0-0.2
				c-0.4,0.7-0.8,1.4-1.2,2.2c0.1,0,0.1-0.1,0.2-0.1c-0.6,0.1-1.3,0.2-1.9,0.3c0.1,0,0.2,0.1,0.3,0.1c-0.5-0.4-1-0.8-1.5-1.1
				c0,0.1,0.1,0.2,0.1,0.2c-0.1-0.4-0.2-0.8-0.3-1.3c0.4,3,1.5,6.5,4.8,7.2C770.3,251.1,771.6,246.2,768.5,245.5L768.5,245.5z"/>
		</g>
	</g>
	<g>
		<g>
			<path class="st2" d="M773.2,247.5c0.1,0,0.1,0,0.2,0c0.2,0,0.2-0.4,0.1-0.5c0,0,0,0,0.1,0c-0.1,0.1-0.3,0.1-0.4,0.2
				c0.1,0.1,0,0.7-0.1,0.8c0,0.2,0,0.5,0,0.7c0,0.3,0.5,0.3,0.5,0c0-0.4,0.1-0.8,0.2-1.3c0-0.3,0-0.4-0.2-0.6
				c-0.2-0.1-0.4-0.1-0.4,0.2C773,247.2,773,247.4,773.2,247.5c0-0.2,0.1-0.4,0.1-0.5c-0.1,0-0.1,0-0.2,0
				C772.7,247.1,772.9,247.6,773.2,247.5L773.2,247.5z"/>
		</g>
	</g>
	<line class="st3" x1="698.4" y1="239.3" x2="707.4" y2="247.2"/>
	<g>
		<g>
			<path class="st2" d="M702.6,243.6c-0.6-0.4-1.1-0.7-1.5-1.3c-0.4-0.6-1.1-1.2-1.5-1.6c-1.8-1.9-4.7,0.1-4.2,2.4
				c0.7,3,2.2,5.6,3.8,8.2c1.4,2.3,4.4,1.1,4.7-1.3c0.3-2.1,0-4.2-0.7-6.2c-1.6,0.4-3.2,0.9-4.8,1.3c0.4,1.1,0.8,2.2,1.7,3
				c0.9,0.8,2,1,3,1.7c1.1,0.8,2.8,0.2,3.4-0.9c0.7-1.3,0.2-2.6-0.9-3.4c-0.6-0.5-1.5-0.6-2.1-1.1c-0.5-0.3,0.2,0.2,0-0.1
				c-0.1-0.1-0.2-0.5-0.2-0.6c-1.1-3-5.9-1.7-4.8,1.3c0.6,1.6,0.7,3.2,0.5,4.9c1.6-0.4,3.1-0.8,4.7-1.3c-1.4-2.2-2.7-4.4-3.3-7
				c-1.4,0.8-2.8,1.6-4.2,2.4c0.3,0.3,0.7,0.5,1,0.8c-0.3,0-0.2,0.2,0.1,0.4c0.2,0.2,0.3,0.5,0.5,0.7c0.7,0.8,1.6,1.3,2.4,1.9
				C702.9,249.6,705.4,245.3,702.6,243.6L702.6,243.6z"/>
		</g>
	</g>
	<g>
		<g>
			<path class="st2" d="M703.2,244.6c0.2,0.1,0.3,0.2,0.4,0.3c0.2,0.3,0.6,0,0.4-0.3c-0.2-0.3-0.4-0.5-0.7-0.5
				C703,244,702.9,244.5,703.2,244.6L703.2,244.6z"/>
		</g>
	</g>
	<g>
		<g>
			<path class="st2" d="M707.3,247.3c0.1,0.1,0.3,0.2,0.5,0.2c0.2,0,0.4-0.3,0.2-0.4c-0.1-0.1-0.2-0.1-0.2-0.2
				C707.5,246.6,707.1,247,707.3,247.3c0.1,0,0.2,0,0.3,0.1c0.1-0.1,0.1-0.3,0.2-0.4c0,0-0.1,0-0.1,0
				C707.4,246.7,707.1,247,707.3,247.3L707.3,247.3z"/>
		</g>
	</g>
	<g>
		<g>
			<path class="st2" d="M707.3,247.1c0.1,0.1,0.1,0.1,0.2,0.2c0.2,0.2,0.6-0.2,0.4-0.4c-0.1-0.1-0.1-0.1-0.2-0.2
				C707.4,246.6,707.1,246.9,707.3,247.1L707.3,247.1z"/>
		</g>
	</g>
	<line class="st3" x1="727" y1="356.5" x2="736" y2="364.4"/>
	<g>
		<g>
			<path class="st2" d="M736.4,356.7c-0.9-0.2-1.7-1-2.5-1.5c-0.9-0.6-1.8-1.2-2.8-1.5c-2.8-0.8-4.3,3.1-1.9,4.6
				c1.1,0.7,1.8,1.7,2.7,2.6c0.5,0.5,1.1,0.9,1.7,1.2c0.3,0.2,0.5,0.4,0.2,0c0.2,0.3,0.3,0.6,0.5,0.9c1.7,2.7,6.1,0.2,4.3-2.5
				c-0.4-0.7-0.7-1.4-1.3-2c-0.6-0.5-1.3-0.7-1.9-1.2c-1.3-1.1-2.3-2.4-3.7-3.4c-0.6,1.5-1.3,3-1.9,4.6c0.8,0.2,1.7,1.1,2.4,1.5
				c0.9,0.6,1.8,1.3,2.9,1.5C738.2,362.2,739.6,357.4,736.4,356.7L736.4,356.7z"/>
		</g>
	</g>
	<g>
		<g>
			<path class="st2" d="M735.9,364.8c0.1,0,0.2,0,0.3,0c0.3,0,0.2-0.5-0.1-0.5c-0.1,0-0.2,0-0.3,0
				C735.4,364.3,735.6,364.8,735.9,364.8L735.9,364.8z"/>
		</g>
	</g>
	<g>
		<g>
			<path class="st2" d="M735.6,364.6C735.6,364.7,735.6,364.7,735.6,364.6c0.1,0.2,0.3,0.2,0.4,0.1c-0.2,0.1-0.1,0.1,0.1,0
				c0.1,0,0.2,0,0.2,0c0.3-0.1,0.2-0.5-0.1-0.5c-0.2,0-0.4,0-0.5,0.1c0.1,0,0.3,0,0.4,0.1c0,0,0,0,0,0
				C735.8,364.1,735.4,364.4,735.6,364.6L735.6,364.6z"/>
		</g>
	</g>
</g>
<g id="Layer_4">
</g>
<g id="Layer_2">
	<path class="st4" d="M126.8,324.7v-67.7h0V232h-30l-29.1,69.7L38.6,232H8.9v25.1h0v67.7H8.7v25.1h28.2v-25.1c0-0.1,0-0.3,0-0.4v-29
		l22.9,54.5h16l22.9-54.5v28.2c0,0.2,0.1,0.4,0.1,0.6v25.7h28.2v-25.1H126.8z"/>
</g>
<g id="Layer_5">
	<g>
		<g id="XMLID_3_">
			<g>
				<path class="st5" d="M764.5,331.9V357h-37.8v-25.1c0,0,0,0,0,0h0.1v-21.4h-28.2v18.8V357H661v-25.1h0v-62.3
					c0.1-0.3,0.2-0.6,0.2-0.9V239h37.4v29.8c0,0.2,0,0.3,0.1,0.5v16.3h28.2V269c0.1-0.2,0.1-0.5,0.1-0.7V239h37.5v25.1L764.5,331.9
					L764.5,331.9z"/>
				<path class="st5" d="M640.2,236.5v18.7h-20.9c-0.1,0-0.2,0-0.3,0h-2.5v49.1c0,0,0,0,0,0v20.2h-21v-18.8h0v-50.6H593
					c-0.1,0-0.2,0-0.3,0h-21v-18.7H640.2z"/>
				<path class="st5" d="M547.8,251.7v55.2c0,0,0,0.1,0,0.1c0,0.3,0,0.5,0,0.8c0,0,0,0,0,0.1c-0.3,1.4-0.2,2.8-0.4,4.2
					c-0.1,1.4-0.5,2.6-1.1,3.8c-0.3,0.5-0.6,0.9-1,1.4l-4.2,4.2c-2.6,1.5-5.3,2.7-8.2,3h-26c-3.3-0.5-6.2-1.7-8.8-3.7c0,0,0,0,0,0
					c-1.1-1-2.1-2.1-3.1-3.2c-2.4-2.6-3.1-5.7-3.4-8.9v-55.4c0.5-3.6,1.4-7.2,3.3-10.3c0.1-0.1,0.1-0.2,0.2-0.2
					c0.3-0.4,0.7-0.7,1-1.1l2.3-2.3c0.8-0.5,1.6-1,2.3-1.6c0.7-0.4,1.4-0.7,2.2-0.9c0.5-0.1,1-0.3,1.5-0.4l29.3-0.1c0,0,0,0,0,0
					c0.9,0.1,1.7,0.2,2.6,0.4c0.8,0.3,1.7,0.6,2.5,1c0.4,0.2,0.8,0.4,1.1,0.6c0.2,0.1,0.3,0.3,0.5,0.4c0.3,0.2,0.5,0.4,0.8,0.6
					l4.6,4.6c0.2,0.3,0.4,0.6,0.6,0.9c0,0,0,0,0,0c0.4,0.9,0.6,2,0.8,3C547.3,249.1,547.6,250.4,547.8,251.7z M526.8,258.1
					c0.1-0.5-0.1-0.8-0.3-1.2l0,0c-0.2-0.4-0.4-0.7-0.7-1l0,0c-0.1-0.1-0.2-0.2-0.3-0.2c-0.7-0.5-1.5-0.6-2.3-0.5h-4
					c0,0-0.1,0-0.1,0c-1.8,0-4.8-0.5-5.8,1.3c0,0,0,0,0,0h0c-0.1,0.1-0.2,0.2-0.2,0.3c0,0,0,0.1-0.1,0.1c-0.1,0.2-0.2,0.4-0.3,0.6
					c0,0,0,0,0,0c0,0,0,0,0,0c0,0,0,0,0,0c0,0.1,0,0.1,0,0.2l-0.1,0v45.4l0.1,0c0,0.1,0,0.2,0.1,0.3c0,0,0,0,0,0
					c0.2,1.1,1.4,1.7,2.6,2c0,0,0,0,0,0c0.2,0.1,0.3,0.1,0.5,0.2l0,0h0.5c0.1,0,0.1,0,0.2,0c0,0,0,0,0,0h6.7c0,0,0.1,0,0.1,0
					c0,0,0.1,0,0.1,0c0,0,0.1,0,0.1,0h0c0.8-0.2,1.5-0.8,2.1-1.2c0.5-0.4,1-0.8,1.1-1.3l0.1-0.1V258.1z"/>
				<path class="st5" d="M462.5,305.9v18.8h-21.1v-18.8h0v-22l-17.1,40.8h-12l-17.1-40.8v22h0c0,0,0,0,0,0v18.7h-21.1v-18.8h0v-50.6
					h0v-18.8h22.3l21.8,52.2l21.8-52.2h22.4v22c0,0.2,0,0.3,0,0.4V305.9z"/>
				<path class="st5" d="M340,305.9v18.8h-21.1v-18.8h0.1v-22l-17.1,40.8h-12l-17.1-40.8v22h0v18.8h-21.1v-18.8h0v-50.2
					c0,0,0-0.1,0-0.1c0.4-4.2,0.2-8.8-0.2-13.1v-6.1h22.5l21.8,52.2l21.8-52.2h22.4v22c0,0,0,0.1,0,0.1L340,305.9L340,305.9z"/>
				<path class="st5" d="M219.2,324.7h-18.8c-0.7-2.8-1.8-5.5-2.4-8.4c-0.8-3.4-1.1-6.9-1.9-10.4h0l-1.4-7.9h-13l-1.3,7.5
					c0,0.1,0,0.1-0.1,0.2c-0.5,3.5-1.7,6.7-2.1,10.2c-0.3,3-0.7,5.9-1,8.8h-20c0.1-0.9,0.1-1.8,0.1-2.7c0.6-4.8,1.8-9.5,2.4-14.2
					c0.8-6.3,1.9-12.4,2.9-18.6c0-0.2,0.1-0.3,0.1-0.5v0l6.7-32.7c0.1-0.3,0.2-0.6,0.3-1c0.5-2.8,0.8-5.6,1.3-8.4
					c0.6-3.4,1.4-6.7,2.1-10.1h29.4c0.8,6.6,2.7,13,4.3,19.5c0.1,0.2,0.1,0.3,0.2,0.4l9.7,47.6c0,0,0,0.1,0,0.2
					c0,0.1,0.1,0.2,0.1,0.4l0.3,1.4h0c0.1,0.3,0.2,0.6,0.2,1c0,0.2,0,0.4,0.1,0.6c0,0.3,0,0.6,0.1,1
					C218.4,313.8,218.4,319.3,219.2,324.7z M192.5,286l-4.4-25.4l-4.4,25.4H192.5z"/>
				<path class="st5" d="M127.6,324.7v25.1H99.4v-25.7c0-0.2,0-0.4-0.1-0.6v-28.2l-22.9,54.5h-16l-22.9-54.5v29c0,0.1,0,0.2,0,0.4
					v25.1H9.3v-25.1h0.2v-67.6V232h29.8l29.1,69.7L97.5,232h30v25.1h0v67.6H127.6z"/>
			</g>
			<g>
			</g>
		</g>
	</g>
	<line class="st6" x1="215.8" y1="302.8" x2="220.5" y2="324.2"/>
	<g>
		<g>
			<path class="st4" d="M218.3,317.3c0.2,0.7,0.4,1.3,0.6,2c0.2,0,0.3-0.1,0.5-0.1c-0.2-0.5-0.3-0.9-0.6-1.4
				c-0.1-0.2-0.5-0.1-0.5,0.1c0.1,1,0.3,2,0.7,2.9c0.1,0.3,0.5,0.1,0.5-0.2c-0.2-0.6-0.3-1.3-0.5-1.9c-0.1-0.3-0.5-0.2-0.5,0.1
				c0,0.9,0.2,1.8,0.5,2.6c0.1,0.2,0.5,0.1,0.5-0.1c0-0.7-0.2-1.3-0.3-2c-0.1-0.3-0.5-0.2-0.5,0.1c-0.1,0.8,0,1.5,0.2,2.2
				c0.1,0.3,0.5,0.2,0.5-0.1c0.1-0.5,0-1-0.1-1.5c-0.1-0.3-0.5-0.2-0.5,0.1c-0.1,1,0.1,1.8,0.5,2.6c0.1,0.3,0.5,0.1,0.5-0.2
				c-0.1-0.7-0.3-1.3-0.6-1.9c-0.1-0.2-0.5-0.1-0.5,0.1c0.1,0.8,0.3,1.6,0.7,2.3c0.1,0.2,0.4,0.1,0.5-0.1c0.1-0.8-0.1-1.4-0.6-2.1
				c-0.1-0.2-0.4-0.2-0.5,0.1c-0.2,0.9-0.1,1.6,0.4,2.4c0.2,0.3,0.5,0.1,0.5-0.2c-0.1-0.7-0.3-1.3-0.6-1.9c-0.1-0.2-0.4-0.1-0.5,0.1
				c-0.1,0.8,0,1.4,0.3,2.1c0,0.1,0.2,0.2,0.3,0.2c0.9-0.3,0.3-1.5-0.1-2c-0.1-0.1-0.4-0.1-0.4,0.1c-0.1,0.5-0.1,2,0.8,1.7
				c0.6-0.2,0.4-1.1-0.1-1.2c-0.1,0-0.2,0-0.2,0.1c-0.3,0.4-0.2,1,0,1.5c0,0.1,0.1,0.2,0.2,0.2c1.4,0.1,0.2-2.5-0.5-1.1
				c-0.2,0.4,0.2,1.4,0.8,1.2c0.7-0.2,0.3-1,0.1-1.4c-0.1-0.2-0.3-0.2-0.4,0c-0.2,0.4-0.4,1.2,0.1,1.4c0.4,0.2,0.7-0.2,0.8-0.6
				c0.1-1.2-1.5-0.6-0.7,0.3c0.1,0.1,0.2,0.1,0.3,0c0.3-0.1,0.4-0.4,0.2-0.7c0-0.1-0.1-0.1-0.2-0.1c-0.7,0-0.8,0.6-0.3,1.1
				c0.1,0.1,0.3,0.1,0.4,0c0.2-0.3,0.3-0.3,0.3-0.6c0-0.1-0.1-0.2-0.2-0.2c-0.6-0.1-0.8,0.4-0.5,0.9c0.1,0.1,0.2,0.2,0.3,0.1
				c0,0,0.1-0.1,0.1-0.1c0.1-0.1,0.1-0.2,0.1-0.3c0-0.1,0-0.1,0-0.2c0-0.1-0.1-0.1-0.2-0.2c-0.6-0.2-1,0.5-0.5,0.9
				c0.1,0.1,0.3,0.1,0.4-0.1c0,0,0,0,0-0.1c0.1-0.1,0-0.2,0-0.3c0,0,0,0,0,0c-0.2-0.2-0.6,0.1-0.4,0.4c0-0.1,0-0.1,0-0.2
				c0.1,0,0.3,0,0.4-0.1c0-0.1-0.1-0.2-0.1-0.3c0.1,0,0.2,0.1,0.3,0.1c0-0.3-0.1-0.6-0.1-0.9c-0.1,0-0.3,0-0.4,0
				c0.5,0.3,0.5,0-0.1-1c-0.1,0-0.3,0.1-0.4,0.1c0.4,0.3,0.5,0.7,0.4,1.1c0.1,0.1,0.2,0.1,0.3,0.2c-0.3-0.7-0.3-1.3-0.3-2
				c-0.2,0-0.3,0.1-0.5,0.1c0.3,0.6,0.4,1.2,0.5,1.8c0.2-0.1,0.3-0.1,0.5-0.2c-0.4-0.7-0.5-1.2-0.3-2c-0.2,0-0.3,0-0.5,0.1
				c0.4,0.6,0.6,1.1,0.5,1.8c0.2,0,0.3-0.1,0.5-0.1c-0.4-0.7-0.6-1.3-0.6-2c-0.2,0-0.3,0.1-0.5,0.1c0.3,0.6,0.5,1.1,0.6,1.7
				c0.2-0.1,0.3-0.1,0.5-0.2c-0.4-0.8-0.5-1.5-0.4-2.4c-0.2,0-0.3,0-0.5,0.1c0.1,0.5,0.1,0.9,0.1,1.4c0.2,0,0.3,0,0.5-0.1
				c-0.2-0.7-0.3-1.4-0.2-2.1c-0.2,0-0.3,0-0.5,0.1c0.2,0.6,0.3,1.2,0.3,1.8c0.2,0,0.3-0.1,0.5-0.1c-0.3-0.8-0.5-1.5-0.5-2.4
				c-0.2,0-0.3,0-0.5,0.1c0.2,0.6,0.3,1.3,0.5,1.9c0.2-0.1,0.3-0.1,0.5-0.2c-0.4-0.9-0.6-1.7-0.7-2.7c-0.2,0-0.3,0.1-0.5,0.1
				c0.2,0.4,0.4,0.8,0.5,1.2c0.1,0.3,0.6,0.2,0.5-0.1c-0.2-0.7-0.4-1.4-0.6-2C218.6,316.9,218.2,317,218.3,317.3L218.3,317.3z"/>
		</g>
	</g>
	<g>
		<g>
			<path class="st4" d="M218.5,324.6c0.8,0.2,1.5,0.1,2.3-0.2c0.1-0.1,0.2-0.2,0.1-0.4c-0.2-0.4-0.4-0.7-0.5-1.1
				c-0.1-0.3-0.6-0.2-0.5,0.1c0.1,0.4,0.3,0.8,0.6,1.2c0-0.1,0.1-0.2,0.1-0.4c-0.7,0.3-1.3,0.3-2,0.2
				C218.4,324,218.2,324.5,218.5,324.6L218.5,324.6z"/>
		</g>
	</g>
	<g>
		<g>
			<path class="st4" d="M219.2,323.1c0.1,0.3,0.3,0.6,0.4,0.9c0.1,0.2,0.4,0.3,0.5,0c0.1-0.2,0.1-0.2,0.1-0.4c-0.2,0-0.3,0-0.5,0.1
				c0,0,0,0,0,0c0,0.1,0.1,0.2,0.2,0.2c0,0,0,0,0.1,0c0.1,0,0.2-0.1,0.2-0.2c0,0,0,0,0,0c0.1-0.3-0.4-0.4-0.5-0.1c0,0,0,0,0,0
				c0.1-0.1,0.2-0.1,0.2-0.2c0,0,0,0-0.1,0c0.1,0.1,0.2,0.1,0.2,0.2c0,0,0,0,0,0c-0.1-0.3-0.5-0.2-0.5,0.1c0,0.1,0,0.2,0,0.3
				c0.2,0,0.3,0,0.5,0c-0.1-0.3-0.3-0.6-0.4-0.9C219.6,322.7,219.1,322.8,219.2,323.1L219.2,323.1z"/>
		</g>
	</g>
	<line class="st1" x1="226.4" y1="312.3" x2="231.2" y2="333.7"/>
	<g>
		<g>
			<path class="st2" d="M229.1,327.2c-0.1-0.5-0.1-0.9,0-1.4c-0.2,0-0.3,0-0.5,0c0,0.9,0.1,1.9,0.3,2.8c0,0.3,0.5,0.2,0.5-0.1
				c0-0.6-0.1-1.1-0.3-1.7c-0.1-0.3-0.5-0.2-0.5,0.1c0.1,0.9,0.3,1.7,0.6,2.6c0.1,0.3,0.5,0.2,0.5-0.1c0-0.9-0.2-1.8-0.4-2.7
				c-0.1-0.3-0.5-0.2-0.5,0.1c0,1.1,0.2,2.1,0.7,3.1c0.1,0.2,0.5,0.1,0.5-0.1c-0.1-0.9-0.2-1.7-0.5-2.6c-0.1-0.3-0.5-0.2-0.5,0.1
				c0,1.1,0.2,2.1,0.5,3.1c0.1,0.2,0.5,0.2,0.5-0.1c-0.1-0.8-0.3-1.5-0.5-2.2c-0.1-0.3-0.5-0.2-0.5,0.1c-0.1,1.1,0.1,2,0.5,3
				c0.1,0.2,0.5,0.1,0.5-0.1c-0.1-0.8-0.3-1.6-0.6-2.3c-0.1-0.2-0.4-0.1-0.5,0.1c-0.2,1-0.1,1.9,0.5,2.8c0.1,0.2,0.4,0.2,0.5-0.1
				c0.1-0.7,0-1.3-0.2-1.9c-0.1-0.2-0.4-0.3-0.5,0c-0.1,0.6-0.4,2,0.5,2.1c0.1,0,0.2,0,0.3-0.1c0.3-0.6,0.1-1.2-0.1-1.8
				c-0.1-0.2-0.4-0.1-0.5,0.1c-0.2,0.5-0.3,1.9,0.5,2c0.1,0,0.2,0,0.3-0.1c0.3-0.5,0.1-1.1-0.2-1.6c-0.1-0.2-0.4-0.2-0.5,0.1
				c-0.2,0.7-0.1,1.2,0.2,1.8c0.1,0.2,0.4,0.1,0.5-0.1c0.2-0.5,0.2-0.9-0.1-1.4c-0.1-0.2-0.4-0.2-0.5,0.1c-0.1,0.4-0.2,1.6,0.6,1.6
				c0.7-0.1,0.4-1,0.1-1.3c-0.1-0.1-0.2-0.1-0.3,0c-0.6,0.3-0.5,1.5,0.2,1.6c0.1,0,0.2,0,0.3-0.1c0.2-0.4,0.1-0.9-0.2-1.2
				c-0.1-0.1-0.2-0.1-0.3,0c-0.5,0.2-0.5,1.4,0,1.5c0.9,0.2,0.5-1,0.2-1.3c-0.1-0.1-0.3-0.1-0.4,0c-0.3,0.4-0.7,1.3,0.2,1.4
				c0.7,0,0.8-0.9,0.3-1.2c-0.6-0.4-1.3,0.4-0.9,1c0.5,0.7,1.2,0.1,1.2-0.5c0-0.2-0.3-0.3-0.4-0.2c-0.2,0.2-0.2,0.2-0.2,0.5
				c0,0.3,0.5,0.3,0.5,0c0,0,0-0.1,0.1-0.1c-0.1-0.1-0.3-0.1-0.4-0.2c0-0.4,0-0.7,0-1.1c-0.2,0-0.3,0-0.5,0.1c0,0.3,0.1,0.7,0.1,1
				c0.2,0,0.3,0,0.5-0.1c-0.3-0.4-0.4-0.9-0.2-1.4c-0.2,0-0.3,0-0.5,0.1c0.3,0.9,0.3,1,0.2,0.5c-0.1-0.3-0.1-0.6,0.1-0.9
				c-0.2,0-0.3,0-0.5,0.1c0.2,0.6,0.3,0.5,0.3-0.3c-0.2,0-0.3,0-0.5,0c0.2,0.6,0.3,1.1,0.2,1.7c0.2,0,0.3,0,0.5-0.1
				c-0.5-0.8-0.6-1.6-0.4-2.5c-0.2,0-0.3,0-0.5,0.1c0.3,0.7,0.5,1.3,0.6,2.1c0.2,0,0.3-0.1,0.5-0.1c-0.4-0.9-0.5-1.8-0.4-2.8
				c-0.2,0-0.3,0-0.5,0.1c0.2,0.7,0.4,1.4,0.5,2.1c0.2,0,0.3,0,0.5-0.1c-0.3-1-0.5-2-0.5-3c-0.2,0-0.3,0-0.5,0.1
				c0.2,0.8,0.4,1.6,0.5,2.4c0.2,0,0.3-0.1,0.5-0.1c-0.5-0.9-0.7-1.8-0.7-2.9c-0.2,0-0.3,0-0.5,0.1c0.2,0.8,0.3,1.7,0.4,2.5
				c0.2,0,0.3,0,0.5-0.1c-0.3-0.8-0.5-1.7-0.6-2.6c-0.2,0-0.3,0.1-0.5,0.1c0.2,0.5,0.2,1,0.3,1.6c0.2,0,0.3,0,0.5-0.1
				c-0.1-0.9-0.2-1.8-0.3-2.7c0-0.3-0.5-0.3-0.5,0c-0.1,0.5,0,1,0,1.5C228.7,327.7,229.2,327.5,229.1,327.2L229.1,327.2z"/>
		</g>
	</g>
	<g>
		<g>
			<path class="st2" d="M229.6,332.3c-0.4,0.4-0.1,1.1,0.5,0.9c0.5-0.2,0.6-1-0.1-0.8c-0.5,0.1-0.6,0.9-0.1,1c0.5,0.1,1.2-0.8,0.5-1
				c-0.5-0.2-1.1,0.5-0.7,1c0.4,0.4,1.3-0.1,1-0.6c-0.3-0.6-1.2,0-1.2,0.5c-0.1,0.7,0.7,0.6,1,0.2c0.5-0.7-0.8-0.9-1-0.2
				c-0.1,0.3,0.1,0.5,0.3,0.5c0.4,0.1,0.7-0.2,0.9-0.5c0.1-0.1,0-0.3-0.1-0.4c-0.5-0.1-1,0.2-1.4,0.4c-0.2,0.1-0.1,0.4,0.1,0.5
				c0.3,0,0.5,0,0.8,0c0-0.2-0.1-0.3-0.1-0.5c-0.2,0-0.5,0.1-0.7,0.1c-0.2,0-0.2,0.4-0.1,0.5c0.2,0.1,0.3,0.1,0.5,0.1
				c0.4-0.1,0.7-0.1,1.1-0.1c0.3,0,0.3-0.5,0-0.5c-0.2,0-0.5,0-0.7,0c-0.1,0-0.4,0.1-0.6,0.1c0,0.2,0,0.3-0.1,0.5
				c0.2,0,0.5-0.1,0.7-0.1c0.3,0,0.2-0.5-0.1-0.5c-0.2,0-0.4,0-0.7,0c0,0.2,0.1,0.3,0.1,0.5c0.2-0.1,0.7-0.4,1-0.4
				c0-0.1-0.1-0.2-0.1-0.4c-0.1,0.2-0.2,0.2-0.4,0.2c0,0.1,0,0.2,0.1,0.2c0.1-0.1,0.2-0.1,0.3-0.2c-0.1-0.1-0.1-0.1-0.2-0.2
				c-0.1,0.1-0.1,0.1-0.1-0.2c0.1-0.3,0-0.3-0.1-0.2C230.2,332.5,229.8,332.1,229.6,332.3L229.6,332.3z"/>
		</g>
	</g>
	<g>
		<g>
			<path class="st2" d="M229.5,333.8c0.6,0,1.3-0.1,1.9,0c0.3,0,0.4-0.2,0.2-0.4c-0.2-0.2-0.3-0.5-0.5-0.8c-0.1-0.3-0.6-0.2-0.5,0.1
				c0.2,0.4,0.3,0.7,0.6,1c0.1-0.1,0.2-0.3,0.2-0.4c-0.7-0.1-1.4,0-2,0C229.1,333.3,229.1,333.8,229.5,333.8L229.5,333.8z"/>
		</g>
	</g>
	<g>
		<g>
			<path class="st2" d="M210.8,245.4c0.1,0,0.3,0.1,0.4,0.2c0-0.1,0-0.2-0.1-0.2c0,0,0,0,0,0.1c0.1-0.1,0.2-0.1,0.3-0.2
				c-0.1,0-0.2,0-0.3-0.1c-0.2,0-0.4,0.2-0.3,0.4c0.1,0.1,0.1,0.2,0.3,0.2c0.3,0.1,0.4-0.4,0.1-0.5c0,0,0,0,0,0
				c-0.1,0.1-0.2,0.2-0.3,0.4c0.1,0,0.2,0,0.3,0.1c0.1,0,0.3,0,0.3-0.2c0.1-0.4-0.4-0.6-0.7-0.6
				C210.7,244.8,210.5,245.3,210.8,245.4L210.8,245.4z"/>
		</g>
	</g>
	<line class="st6" x1="197.8" y1="313.1" x2="200.2" y2="324.2"/>
	<g>
		<g>
			<path class="st4" d="M200,323.3c-0.1,0.3-0.1,0.6-0.2,1c0,0.2,0.2,0.3,0.3,0.2c0.2-0.1,0.4-0.1,0.6-0.3c0.3-0.2,0-0.6-0.3-0.4
				c-0.2,0.1-0.3,0.2-0.5,0.2c0.1,0.1,0.2,0.2,0.3,0.2c0-0.3,0.1-0.6,0.1-0.8C200.6,323.2,200.1,323,200,323.3L200,323.3z"/>
		</g>
	</g>
	<g>
		<g>
			<path class="st4" d="M199.7,323.2c-0.1,0.4-0.1,0.9,0.2,1.2c0.4,0.4,1.1,0.2,1.6,0.1c0.3,0,0.3-0.5,0-0.5c-0.3,0-0.7,0.2-0.9,0.1
				c-0.4-0.1-0.4-0.5-0.3-0.8C200.3,323,199.8,322.9,199.7,323.2L199.7,323.2z"/>
		</g>
	</g>
	<line class="st6" x1="179.6" y1="305.9" x2="177.9" y2="324.4"/>
	<g>
		<g>
			<path class="st4" d="M177.9,320.8c0-0.4,0-0.6-0.1-1c-0.1-0.3-0.5-0.2-0.5,0.1c0,0.8,0,1.6,0,2.4c0.2,0,0.3,0,0.5,0
				c0-1.2,0-2.3,0.1-3.5c-0.2,0-0.3,0-0.5,0c0.1,1.5,0,2.9-0.3,4.4c0.2,0,0.3,0,0.5,0.1c0-0.2,0-0.4,0.1-0.7c0-0.3-0.4-0.3-0.5-0.1
				c-0.1,0.4-0.1,0.8-0.1,1.3c0,0.3,0.5,0.3,0.5,0c0-0.2,0-0.4,0.1-0.7c0-0.3-0.4-0.3-0.5-0.1c-0.1,0.4-0.1,0.7-0.1,1
				c0,0.3,0.5,0.3,0.5,0c0-0.1,0-0.2,0-0.4c0-0.3-0.4-0.3-0.5-0.1c-0.1,0.1-0.2,0.2-0.3,0.3c-0.3,0-0.3,0.5,0,0.5c0.4,0,0.7,0,1.1,0
				c0.3,0,0.3-0.4,0.1-0.5c-0.4-0.1-0.8-0.1-1.1,0.2c-0.1,0.1-0.1,0.4,0.1,0.4c0.3,0.1,0.6,0.1,0.9,0c0.1,0,0.2-0.1,0.2-0.2
				c0-0.7,0-1.5,0-2.2c0-0.3-0.5-0.3-0.5,0c0,0.3,0.1,2.1-0.5,1.9c0,0.1,0.1,0.3,0.1,0.4c0.2,0,0.4,0,0.6-0.1c0-0.2,0-0.3,0.1-0.5
				c-0.4,0-0.7,0-1.1,0c0,0.2,0,0.3,0,0.5c0.5,0,0.7-0.2,0.8-0.6c-0.2,0-0.3,0-0.5-0.1c0,0.1,0,0.2,0,0.4c0.2,0,0.3,0,0.5,0
				c0-0.3,0-0.6,0.1-0.9c-0.2,0-0.3,0-0.5-0.1c0,0.2,0,0.4-0.1,0.7c0.2,0,0.3,0,0.5,0c0-0.4,0-0.8,0.1-1.2c-0.2,0-0.3,0-0.5-0.1
				c0,0.2,0,0.4-0.1,0.7c0,0.3,0.4,0.3,0.5,0.1c0.3-1.5,0.4-3,0.3-4.5c0-0.3-0.5-0.3-0.5,0c-0.1,1.2-0.1,2.3-0.1,3.5
				c0,0.3,0.5,0.3,0.5,0c0-0.8,0-1.6,0-2.4c-0.2,0-0.3,0-0.5,0.1c0.1,0.3,0.1,0.6,0.1,0.8C177.4,321.1,177.9,321.1,177.9,320.8
				L177.9,320.8z"/>
		</g>
	</g>
</g>
</svg>
