<svg id="Layer_1" data-name="Layer 1" xmlns="http://www.w3.org/2000/svg" width="765.1" height="178.26" viewBox="0 0 765.1 178.26"><defs><style>.cls-1{fill:#6e1011;}.cls-2,.cls-6{fill:none;}.cls-2{stroke:#6e1111;}.cls-2,.cls-6,.cls-7{stroke-miterlimit:10;}.cls-3{fill:#6e1111;}.cls-4{fill:#fec23a;}.cls-5{fill:#f89841;}.cls-6{stroke:#fec23a;}.cls-7{fill:#fff;stroke:#000;stroke-width:0.25px;}</style></defs><title>mammoth_title</title><g id="Layer_1-2" data-name="Layer 1"><g id="_Group_" data-name="&lt;Group&gt;"><path class="cls-1" d="M670.8,276.8V247.2H708v29.7a.9.9,0,0,0,.1.5v16.2h28V277.1a1.48,1.48,0,0,0,.1-.7V247.2h37.4v92.5h.1v25H736v-25h.1V318.4h-28v46.3H670.6v-25h0V277.6A1.88,1.88,0,0,0,670.8,276.8Z" transform="translate(-8.7 -232)"/><path class="cls-1" d="M650.7,245.6v18.7H627v49.1h0v20.2H606V315h0V264.4H582.3V245.7h68.4Z" transform="translate(-8.7 -232)"/><path class="cls-1" d="M558.4,260.8v56a32.73,32.73,0,0,0-.4,4.5,13.89,13.89,0,0,1-1.4,4.5l-4.9,4.9a20.89,20.89,0,0,1-8.2,3h-26a18.67,18.67,0,0,1-8.8-3.7h0c-1.1-1-2.1-2.1-3.1-3.2-2.4-2.6-3.1-5.7-3.4-8.9V262.5a26.52,26.52,0,0,1,3.3-10.3c.1-.2.3-.4.4-.6l3.5-3.6a20.74,20.74,0,0,1,5-2.3l31.5-.1a34.54,34.54,0,0,0,3.4,1.4l2.1,1.2,5.3,5.3a12.92,12.92,0,0,1,1,3.5C557.9,258.3,558.1,259.5,558.4,260.8Zm-21.1,51.5V266.9l-.2-.1a2.23,2.23,0,0,0-.9-1.7h0c-.1-.1-.2-.2-.3-.2a3.15,3.15,0,0,0-2.3-.5h-7.4l-.1.1a2.34,2.34,0,0,0-1.7.7,3.53,3.53,0,0,0-1.2,1.7v.1l-.2.2v45.4l.1.1c.1,1,1.7,2,2.9,2.4l.3.2h7.8l.1-.1a10,10,0,0,0,1.9-1.2,2.13,2.13,0,0,0,1.1-1.2Z" transform="translate(-8.7 -232)"/><path class="cls-1" d="M473.1,315v18.8H452V315h0V293l-17.1,40.8h-12L405.8,293v22h0v18.7H384.7V315h0V264.4h0V245.6H407l21.8,52.2,21.8-52.2H473V315Z" transform="translate(-8.7 -232)"/><path class="cls-1" d="M350.5,315v18.8H329.4V315h.1V293l-17.1,40.8h-12L283.2,293v22h0v18.8H262.1V315h0V264.7a71.94,71.94,0,0,0-.2-13.1v-6.1h22.5l21.8,52.2L328,245.5h22.4v22.1l.1,47.4Z" transform="translate(-8.7 -232)"/><path class="cls-1" d="M229.7,333.8H210.8c-.7-2.8-1.8-5.5-2.4-8.4-.8-3.4-1.1-6.9-1.9-10.4h0l-1.4-7.9h-13l-1.3,7.5c0,.1,0,.1-.1.2-.5,3.5-1.7,6.7-2.1,10.2-.3,3-.7,5.9-1,8.8h-20a24.37,24.37,0,0,0,.1-2.7c.6-4.8,1.8-9.5,2.5-14.2.8-6.3,1.8-12.4,2.9-18.6,0-.2.1-.3.1-.5h0L180,265c.1-.3.2-.6.3-1,.5-2.8.8-5.6,1.3-8.4.6-3.4,1.4-6.7,2.1-10.1H213c.8,6.6,2.7,13,4.3,19.5.1.2.1.3.2.5l9.7,47.6v.2c0,.1.1.2.1.4l.3,1.4c.1.6.2,1.2.3,1.7a2.2,2.2,0,0,0,.1.8C229,322.9,228.9,328.4,229.7,333.8ZM203,295.1l-4.4-25.4-4.4,25.4Z" transform="translate(-8.7 -232)"/><path class="cls-1" d="M138.1,333.8v25.1H110V333.2a1.27,1.27,0,0,0-.1-.6V304.4L87,358.9H71L48.1,304.4v54.5H19.9V333.8h.2V241.1H49.9L79,310.8l29.1-69.7h30v25.1h0v67.6Z" transform="translate(-8.7 -232)"/></g></g><g id="Layer_3" data-name="Layer 3"><path class="cls-1" d="M25,351.7l-9.6-6.8-2.2,3.2c-.1-.1-.2-.1-.3-.2a2.21,2.21,0,0,0-2.2-.5A2.53,2.53,0,0,0,9,350.5a3.26,3.26,0,0,0,1.8,2L20,359Z" transform="translate(-8.7 -232)"/><rect class="cls-1" x="62.66" y="341.18" width="14.9" height="14.9" transform="translate(-247.46 -59.61) rotate(-48.92)"/><rect class="cls-1" x="117.13" y="318.01" width="8.9" height="11.8" transform="translate(-222.06 5.24) rotate(-54.92)"/><path class="cls-1" d="M105.5,344.9l-1.9,2.7a6.89,6.89,0,0,0-.8-.3c-.3-.1-.5-.3-.8-.3a2.85,2.85,0,0,0-2.2.4,2.61,2.61,0,0,0-1,2,3.24,3.24,0,0,0,1.6,2.7h0l9.6,6.8,5.1-7.3Z" transform="translate(-8.7 -232)"/><path class="cls-1" d="M131.2,236.3a20.89,20.89,0,0,0-2.2-2c-1.2-1.2-3-3.1-4.8-1.8a3.6,3.6,0,0,0-1.2,1.8,3.31,3.31,0,0,0,0,2.4,6,6,0,0,0,1.9,2.7l-1.6,2.2,9.6,6.8,5.1-7.3Z" transform="translate(-8.7 -232)"/><rect class="cls-1" x="38.02" y="235.76" width="8.9" height="11.8" transform="translate(-188.4 -94.48) rotate(-54.92)"/><line class="cls-2" x1="148.9" y1="92.4" x2="159.2" y2="101.4"/><path class="cls-3" d="M171.2,328.7a3.06,3.06,0,0,0-.4-2.6V326a2.54,2.54,0,0,0-2.5-2.5,5.73,5.73,0,0,0-1.4.4,2.43,2.43,0,0,0-1.5-1.3,5.34,5.34,0,0,0-2.2-.2h-.8a2.28,2.28,0,0,0-2.5-.1,2.49,2.49,0,0,0-.9,3.4,3.44,3.44,0,0,0,1.8,1.4c1,.7,2.2,1,3,2a12.45,12.45,0,0,0,2.1,1.9,8,8,0,0,0,1.7,1.5c2.2,1.5,4.3-1.1,3.5-3.2C171.2,329.2,171.2,329,171.2,328.7Z" transform="translate(-8.7 -232)"/><path class="cls-3" d="M167.4,333a1.42,1.42,0,0,0,.2.6.37.37,0,0,0,.3.1c.2,0,.4-.1.6-.1s.2-.6-.1-.5-.4.1-.6.1c.1,0,.2.1.3.1-.1-.2-.2-.3-.2-.5s-.6-.1-.5.2Z" transform="translate(-8.7 -232)"/><path class="cls-3" d="M167.5,333.5a.35.35,0,0,0,.1.2l.3-.3a.1.1,0,0,1-.1-.1c-.3-.2-.5.2-.3.4h.1c.3.2.5-.2.3-.4h-.1c-.1.1-.2.3-.3.4a.1.1,0,0,1,.1.1c.2.1.5-.1.3-.3s-.1-.1-.1-.2c0-.4-.4-.1-.3.2Z" transform="translate(-8.7 -232)"/><line class="cls-2" x1="192" y1="92.4" x2="202.4" y2="101.4"/><path class="cls-3" d="M202.9,325.8a5.73,5.73,0,0,1,1.1,1.1c.5.7,1.1,1.4,1.7,2.1a31.11,31.11,0,0,0,4.2,3.2c2.7,1.8,5.2-2.5,2.5-4.3a16.6,16.6,0,0,1-3.8-3.1c-1-1.2-1.7-2.6-3.1-3.3-2.9-1.5-5.5,2.8-2.6,4.3Z" transform="translate(-8.7 -232)"/><path class="cls-3" d="M210.6,333.3c0,.1.1.2.1.4.1-.1.3-.2.4-.3v-.1c-.1-.2-.6-.1-.5.2v.1c.1.3.6.2.5-.1v-.1c-.2.1-.3.1-.5.2v.1a.25.25,0,1,0,.4-.3.35.35,0,0,0-.1-.2c.1-.4-.4-.2-.3.1Z" transform="translate(-8.7 -232)"/><line class="cls-2" x1="193.4" y1="4.9" x2="204.1" y2="14.1"/><path class="cls-3" d="M211.5,246.4a6.81,6.81,0,0,0-1.5-2.6c-.7-.7-1.6-1-2.3-1.7a10.9,10.9,0,0,0-1.8-1.9,4.13,4.13,0,0,0-1.1-.7c-.2-.1-1-.6-.8-.3a2.58,2.58,0,0,0-3.4-.9,2.47,2.47,0,0,0-.9,3.4c1,1.4,2.6,1.8,3.6,3a12.88,12.88,0,0,0,1.6,1.7c.5.4,1.5.7,1.7,1.4,1.1,2.9,5.9,1.6,4.9-1.4Z" transform="translate(-8.7 -232)"/><line class="cls-2" x1="243.3" y1="92.4" x2="253.6" y2="101.3"/><path class="cls-3" d="M256.7,321.1a9.14,9.14,0,0,0-1.4.7c-.2.2-1.1,1-.3.4.4-.1.8-.2,1.3-.3h-.4c.4.1.8.2,1.3.3-.1,0-.1,0-.2-.1-.4,1.4-.7,2.8-1.1,4.2a.9.9,0,0,0,.5-.1h-1.3c.6.1.8.6,1.2,1a9.6,9.6,0,0,0,1.5,1.4c.8-1.4,1.7-2.9,2.5-4.3-.7-.4-1.3-.8-2-1.2-.6,1.5-1.3,3-1.9,4.6a10.18,10.18,0,0,1,2.3,1.8c.9.8,1.7,1.6,2.6,2.5,1.8,1.7,4.9,0,4.2-2.4a18.86,18.86,0,0,0-2-4.6c-1.7-2.7-6.1-.2-4.3,2.5a10.39,10.39,0,0,1,1.5,3.4l4.2-2.4c-2.2-2.1-4.2-4.4-7.1-5.6-2.6-1.1-4.4,3.2-1.9,4.6.7.4,1.4.8,2,1.2a2.49,2.49,0,1,0,2.5-4.3c-.8-.6-1.2-1.7-2.2-2.3a4.74,4.74,0,0,0-3.5-.6,2.51,2.51,0,0,0-1.1,4.2,3.48,3.48,0,0,0,3.2,1.1,3.64,3.64,0,0,0,2.2-1.5c-.4.2-.7.4-1.1.6.1,0,.2-.1.3-.1a2.53,2.53,0,0,0,1.7-3.1,2.77,2.77,0,0,0-3.2-1.6Z" transform="translate(-8.7 -232)"/><path class="cls-3" d="M261.9,332.9c0,.2.1.4.1.7s.5.2.5-.1-.1-.4-.1-.7-.6-.2-.5.1Z" transform="translate(-8.7 -232)"/><path class="cls-3" d="M261.9,333a.64.64,0,0,0,0,.6c.1.3.6.2.5-.1v-.2a.3.3,0,0,0-.5-.3Z" transform="translate(-8.7 -232)"/><line class="cls-2" x1="281.4" y1="92.3" x2="291.5" y2="101.2"/><path class="cls-3" d="M299.3,325.1c.1,0-.4-.3-.6-.4a10.47,10.47,0,0,1-1.1-.8,13,13,0,0,1-2.2-1.9l-3.5,3.5c2.6,2.3,4.8,6.1,8.4,6.8,3.1.6,4.5-4.2,1.3-4.8-1.4-.3-2-1.2-2.9-2.2s-2.1-2.2-3.3-3.3a2.48,2.48,0,0,0-3.5,3.5,24.51,24.51,0,0,0,3.5,2.9,6.2,6.2,0,0,0,3.9,1.6c3.3.1,3.3-4.9,0-4.9Z" transform="translate(-8.7 -232)"/><path class="cls-3" d="M299.7,332.9c0,.2.1.3.1.5a.76.76,0,0,1,.4-.2l-.1-.1c-.1-.2-.4,0-.4.2,0,.8,1,.5,1.5.5.3,0,.2-.5-.1-.5-.1,0-.9.2-.9,0-.1.1-.3.1-.4.2l.1.1c.2.2.5,0,.4-.2a.9.9,0,0,1-.1-.5c-.1-.5-.6-.4-.5,0Z" transform="translate(-8.7 -232)"/><path class="cls-3" d="M301.2,332.8a4,4,0,0,1-1.2-1c-.2-.2-.5.1-.4.3a1.7,1.7,0,0,0,.6.6c.3.2.5-.3.3-.4a1,1,0,0,1-.4-.5c-.1.1-.3.2-.4.3a4.49,4.49,0,0,0,1.3,1.1c.2.2.4-.3.2-.4Z" transform="translate(-8.7 -232)"/><line class="cls-2" x1="330.7" y1="4.9" x2="341.2" y2="13.6"/><path class="cls-3" d="M344.9,243.2a6.72,6.72,0,0,0-2.4-.4,2.52,2.52,0,0,0-2.4,3.2c1,3,6.4,4,6.6,0,.1-3.3-5-5.6-6.8-2.4-1.8,3,2.4,6.5,5.3,4.8,1.6-.9,1.6-2.9.8-4.4a6.48,6.48,0,0,0-3.1-2.8l.9.9c.2.4-.2-.5-.2-.6-.2-.4-.3-.7-.5-1.1a9,9,0,0,0-1.5-1.9l-3.5,3.5c1.4,1.2,3,2.3,4.3,3.5a25.86,25.86,0,0,0,3.5,3.1c2.7,1.8,5.2-2.6,2.5-4.3a24.43,24.43,0,0,1-2.9-2.7c-1.3-1.1-2.6-2.1-3.9-3.1a2.61,2.61,0,0,0-3.5,0,2.51,2.51,0,0,0,0,3.5c.8.8.9,1.7,1.5,2.5s1,.8,1.6,1.3c.4.3.4.6.4.3.4-.7.8-1.4,1.2-2.2-.1,0-.1.1-.2.1.4-.1.8-.2,1.3-.3-.1,0-.1-.1,0,0,.2.4.4.7.6,1.1,0-.1-.1-.2-.1-.4v1.3c0-.1.1-.2.1-.3a14.31,14.31,0,0,0-1.1,1.5c.1-.1.3-.1.4-.2-.4.1-.8.2-1.3.3-.1-.2-.2-.2-.1,0-.2-.4-.4-.7-.6-1.1v-.1c.1-.4.2-.8.3-1.3-.1.1-.1.2-.2.2a14.31,14.31,0,0,1,1.5-1.1.37.37,0,0,0-.3.1h1.3c.2.4.4.7.6,1.1,0-.1-.1-.2-.1-.3-.8,1.1-1.6,2.1-2.4,3.2a2.15,2.15,0,0,1,1.1.2c3,1.2,4.3-3.7,1.3-4.7Z" transform="translate(-8.7 -232)"/><path class="cls-3" d="M349.9,245.6c0,.1-.2,0-.1.2l.1.1c.2.1.4-.1.4-.3s0-.2-.1-.3l-.3.3c-.1.1-.1.2,0,.2-.1.3.4.4.5.1a.62.62,0,0,0-.2-.7c-.2-.2-.5.1-.4.3s0,.1.1.2a1.38,1.38,0,0,1,.4-.3c.1,0-.1-.2-.1-.2a.37.37,0,0,0-.3-.1c-.2,0-.4.1-.4.3-.1.4.4.5.4.2Z" transform="translate(-8.7 -232)"/><path class="cls-3" d="M350.3,246.6a3.55,3.55,0,0,0,.2-1c-.1-.3-.4-.3-.5-.6a1.38,1.38,0,0,0-.3.4c.1.1.2.1.3.2a.25.25,0,1,0,.4-.3.68.68,0,0,0-.6-.4c-.2,0-.4.2-.3.4s.2.2.3.3,0,.6,0,.8a.27.27,0,1,0,.5.2Z" transform="translate(-8.7 -232)"/><line class="cls-2" x1="310.4" y1="92.4" x2="320.4" y2="101.2"/><path class="cls-3" d="M328.7,333.2a.54.54,0,0,0,.4.3c0-.2.1-.3.1-.5a.1.1,0,0,1-.1-.1c-.2-.2-.5.1-.4.3s.1.2.2.3l.4-.4-.3-.3c-.2-.2-.5,0-.4.3a1,1,0,0,0,1.3.4.25.25,0,1,0-.3-.4.48.48,0,0,1-.6-.2c-.1.1-.3.2-.4.3l.3.3c.2.2.6-.1.4-.4l-.2-.2c-.1.1-.3.2-.4.3.1.2.3.2.5.2s.4-.4.1-.5c-.1-.1-.2-.1-.3-.3-.1,0-.5.3-.3.6Z" transform="translate(-8.7 -232)"/><path class="cls-3" d="M329.3,332.9c-.1-.1-.3-.2-.4-.3l-.3.3a3.55,3.55,0,0,0,.9.4c.3.1.4-.3.2-.5s-.3-.2-.5-.3-.5.3-.3.4.1.1.2.1.1-.3.2-.4h-.2c-.2,0-.4.3-.2.4s.3.2.4.3.6-.2.4-.4-.3-.2-.4-.3c-.1.1-.1.3-.2.4h.2a.27.27,0,0,0,.2-.4.77.77,0,0,0-.3-.2c-.1.1-.2.3-.3.4.2.1.3.2.5.3.1-.2.1-.3.2-.5a4.88,4.88,0,0,1-.7-.3c-.2-.1-.5.1-.3.3s.3.4.5.5c.2.4.5-.1.2-.2Z" transform="translate(-8.7 -232)"/><path class="cls-3" d="M328.1,323.1a2.82,2.82,0,0,0-2.9,2.4c-.3,1.8,1.2,3.2,2.7,4,2.8,1.6,5.2-2.6,2.5-4.3-1.5-1-3.7-1.1-4.7.7-1.3,2.3,1,3.4,1.9,5.1.9-1.2,1.9-2.4,2.8-3.7-.2-.1-.4-.1-.5-.2-2.5-.9-4,2.5-2.4,4.2a10.7,10.7,0,0,0,1.6,1.4c2.2,1.7,5.2-2.1,3-3.9-2.7-2.2-5.3-4.3-8.1-6.4-.6,1.4-1.2,2.8-1.8,4.3,4.9.5,9.8.9,14.7,1-.7-1.3-1.4-2.5-2.2-3.8-.1.1-.2.3-.3.4-2,2.6,2.4,5,4.3,2.5.1-.1.2-.3.3-.4,1.2-1.6-.5-3.7-2.2-3.8-4.9-.1-9.8-.5-14.7-1-2.1-.2-3.4,3-1.8,4.3,2.7,2.1,5.4,4.2,8.1,6.4l3-3.9-.6-.6-2.4,4.2c.2.1.4.1.5.2,2.1.7,3.8-1.9,2.8-3.7-.1-.1-1.7-2.3-1.6-1.3-.2.6-.5,1.2-.7,1.8.1-.1.2-.2.3-.2-.6.2-1.2.5-1.8.7a.37.37,0,0,0-.3.1c.8-1.4,1.7-2.9,2.5-4.3a.37.37,0,0,1-.3-.1l-.6,2.4c.1-.1.1-.2.2-.2-.6.2-1.2.5-1.8.7h.3c3.4.2,3.4-4.8.2-5Z" transform="translate(-8.7 -232)"/><line class="cls-2" x1="264.9" y1="4.8" x2="275.3" y2="13.9"/><path class="cls-3" d="M275.7,246.3a10.67,10.67,0,0,1,4.1,2.1c.6-1.4,1.2-2.8,1.8-4.3-1,0-1.8-1.2-2.4-1.9-1.1-1.1-2.1-2.2-3.2-3.3-2.2-2.3-5.8,1.2-3.5,3.5,2.5,2.6,5.2,6.7,9.2,6.7,2,0,3.5-2.8,1.8-4.3a15.5,15.5,0,0,0-6.3-3.4c-3.3-.7-4.6,4.1-1.5,4.9Z" transform="translate(-8.7 -232)"/><line class="cls-2" x1="387.7" y1="5.1" x2="397.9" y2="14"/><path class="cls-3" d="M400.4,247.8c.7.2,1.4.4,2.2.6v-4.8h1c.5.2-.2-.2-.3-.3s-.4-.3-.6-.4a12,12,0,0,1-1.2-1.1c-.9-.9-1.8-1.9-2.7-2.8-2.2-2.3-5.8,1.2-3.5,3.5a46.43,46.43,0,0,0,3.8,3.9c.6.5,1.3,1,2,1.5a3.59,3.59,0,0,0,2.9.5c2.5-.4,2.2-4.2,0-4.8-.7-.2-1.4-.4-2.2-.6-3.2-.8-4.6,4-1.4,4.8Z" transform="translate(-8.7 -232)"/><path class="cls-3" d="M397,237.6a1.45,1.45,0,0,1-.2-.7c-.2.1-.3.1-.5.2.1.1.2.2.2.3a.25.25,0,1,0,.4-.3,1,1,0,0,0-.4-.5c-.2-.2-.6.1-.4.4.1.1.2.3.3.4.1-.1.3-.2.4-.3-.1-.1-.2-.2-.2-.3a.28.28,0,0,0-.5.2c.1.3.2.5.3.8.3.3.7.1.6-.2Z" transform="translate(-8.7 -232)"/><path class="cls-3" d="M397.1,237.7c-.1-.4-.5-1.6-1.1-.9-.2.3.3.5.4.3-.1.2.1.6.2.7.1.3.6.2.5-.1Z" transform="translate(-8.7 -232)"/><line class="cls-2" x1="365.9" y1="92.2" x2="376" y2="101.3"/><line class="cls-2" x1="404" y1="92.3" x2="414.4" y2="101.2"/><line class="cls-2" x1="433.2" y1="92.1" x2="443.3" y2="101.3"/><line class="cls-2" x1="453.2" y1="4.9" x2="463.4" y2="13.6"/><line class="cls-2" x1="587.1" y1="92.2" x2="597.3" y2="101.2"/><line class="cls-2" x1="652.3" y1="92.1" x2="662.4" y2="101"/><path class="cls-3" d="M663.3,326.2c2.8,1.7,4.7,4.5,7.3,6.5,1.5,1.2,4.5.6,4.3-1.8a12.45,12.45,0,0,0-2.3-6.5,2.58,2.58,0,0,0-3.4-.9,2.47,2.47,0,0,0-.9,3.4,8.41,8.41,0,0,1,1.7,4c1.4-.6,2.8-1.2,4.3-1.8a37.8,37.8,0,0,1-4.1-3.9,17.41,17.41,0,0,0-4.2-3.4c-2.9-1.6-5.4,2.7-2.7,4.4Z" transform="translate(-8.7 -232)"/><path class="cls-3" d="M670.5,332.8a2.09,2.09,0,0,0,.4.6c.1.2.4.2.5-.1a.57.57,0,0,0-.4-.7c-.2-.1-.3.1-.3.3s.1.5.3.7.5.1.5-.1v-.2a.25.25,0,0,0-.5,0v.2c.2,0,.3-.1.5-.1-.1-.2-.2-.3-.2-.5l-.3.3v.1a.9.9,0,0,0,.5-.1,2.09,2.09,0,0,0-.4-.6c-.3-.4-.7-.1-.6.2Z" transform="translate(-8.7 -232)"/><path class="cls-3" d="M670.4,332.8c.2.3.4.5.6.8s.6-.1.4-.4a1.79,1.79,0,0,1-.5-.7c-.2-.2-.7.1-.5.3Z" transform="translate(-8.7 -232)"/><path class="cls-3" d="M732.1,333.7c.1.3.4.3.6.3s.2-.6-.1-.5h-.1c-.1-.3-.5-.1-.4.2Z" transform="translate(-8.7 -232)"/><path class="cls-3" d="M759.3,246a2.51,2.51,0,0,1,.7.4c.2.1.4-.1.4-.3a1.06,1.06,0,0,0-.6-.7c-.3-.1-.5.3-.3.4a1.21,1.21,0,0,1,.5.5.25.25,0,1,0,.4-.3,2.34,2.34,0,0,0-.7-.7c-.1.1-.2.3-.3.4.2.1.3.2.3.4a1.38,1.38,0,0,1,.4-.3,2.51,2.51,0,0,1-.7-.4c-.1.1-.4.5-.1.6Z" transform="translate(-8.7 -232)"/><path class="cls-3" d="M466.1,241.8l-.5-.5a2.54,2.54,0,0,0-4.3,1.8,6.7,6.7,0,0,0,.7,3.1,2.42,2.42,0,0,0,3.1,1,2.4,2.4,0,0,0,1.4-2.9,12.84,12.84,0,0,0-2-5l-3.9,3a83,83,0,0,0,6.9,6.4c2.4,2.1,6-1.4,3.5-3.5a60.1,60.1,0,0,1-6.9-6.4c-1.9-2.1-5.5.7-3.9,3a10.43,10.43,0,0,1,1.5,3.8c1.5-.6,3-1.3,4.6-1.9a.9.9,0,0,1-.1-.5c-1.4.6-2.8,1.2-4.3,1.8l.5.5c2.4,2.1,5.9-1.4,3.7-3.7Z" transform="translate(-8.7 -232)"/><path class="cls-3" d="M471.4,245.7a4.67,4.67,0,0,0,1,.5c.2.1.4-.2.2-.4a4.35,4.35,0,0,1-.6-.7c-.1.1-.2.3-.3.4a4.23,4.23,0,0,1,.7.5c.2.2.6-.1.4-.4s-.5-.4-.8-.6-.5.2-.3.4a4.35,4.35,0,0,1,.6.7.76.76,0,0,0,.2-.4,3.55,3.55,0,0,1-.9-.4c-.2-.3-.4.2-.2.4Z" transform="translate(-8.7 -232)"/><path class="cls-2" d="M640,237.3c3.4,2.8,6.8,5.7,10.2,8.5" transform="translate(-8.7 -232)"/><line class="cls-2" x1="563.5" y1="22.9" x2="573.6" y2="31.9"/><path class="cls-3" d="M578.2,252.6a6.72,6.72,0,0,0-2.4-.4,2.55,2.55,0,0,0-1.3,4.7c2.8,1.8,4.2,5.3,7.4,6.5,1.4.6,3.3-.9,3.2-2.4a15,15,0,0,0-1.5-5.5c-.5-1.2-2.3-1.5-3.4-.9a2.56,2.56,0,0,0-.9,3.4,10.24,10.24,0,0,1,.8,3c1.1-.8,2.1-1.6,3.2-2.4-.2-.1-.8-1-1.1-1.3-.5-.6-1-1.2-1.5-1.7a16.89,16.89,0,0,0-3.6-3c-.4,1.6-.8,3.1-1.3,4.7a2.15,2.15,0,0,1,1.1.2,2.53,2.53,0,0,0,3.1-1.7,2.65,2.65,0,0,0-1.8-3.2Z" transform="translate(-8.7 -232)"/><path class="cls-3" d="M645.3,243.9a3.25,3.25,0,0,0-6.1,1.8,3.39,3.39,0,0,0,2.7,3,5,5,0,0,0,2.1,0c.7-.2,1.3-.6,1.9-.8h-1.3c.4.2.9.5,1.3.7.4-1.6.8-3.1,1.3-4.7h-.4c.4.1.8.2,1.3.3a15.07,15.07,0,0,1-3.7-2.5c-1-.9-1.6-2.2-2.6-3.1l-3,3.9a14.72,14.72,0,0,1,4.6,3.6c2.2,2.4,5.7-1.1,3.5-3.5a19.83,19.83,0,0,0-5.6-4.4c-2.4-1.3-5.3,2-3,3.9a11.2,11.2,0,0,1,1.7,2,9,9,0,0,0,2,1.9c1.5,1.2,3.3,2.8,5.3,2.8,2.4-.1,3.5-3.4,1.3-4.7-1.1-.6-2.2-1.4-3.5-1.3a2.69,2.69,0,0,0-1.5.5c-.4.3-.5.1-.2.3l.9.9h0v1.4l-.9.9c.1-.1.2-.1.3-.2-.4.1-.8.2-1.3.3-.1,0-.3-.1-.4-.1l-.9-.9c.1.1.1.2.2.3,1.3,3,5.6.5,4-2.3Z" transform="translate(-8.7 -232)"/><path class="cls-3" d="M605.8,324.9c-.1,0-.3-.1-.4-.1a2.6,2.6,0,0,0-3.2,2.4,3.29,3.29,0,0,0,.8,2.5c.3.4,1.4.9,1.5,1.1l3.9-3a5.1,5.1,0,0,0-2-1.2c-2.4-1-4.1,2.5-2.4,4.2l1.3,1.3,3.5-3.5c-2.6-2.1-5.2-4.3-7.9-6.4-.6,1.4-1.2,2.8-1.8,4.3a21.49,21.49,0,0,1,5.6.7c3.1.9,4.4-4,1.3-4.8a26.66,26.66,0,0,0-6.9-.9c-2,.1-3.5,2.8-1.8,4.3,2.6,2.1,5.2,4.3,7.9,6.4,2.4,2,5.9-1.2,3.5-3.5l-1.3-1.3-2.4,4.2c-.1,0-.1,0-.2-.1a2.49,2.49,0,0,0,3.9-3,2.85,2.85,0,0,0-1.1-1.3c-.3-.2-.9-.5-.9-.7.1.4.2.8.3,1.3a.6.6,0,0,1,.1-.4c-1.1.8-2.1,1.6-3.2,2.4.1,0,.3.1.4.1,3.3.7,4.6-4.1,1.5-5Z" transform="translate(-8.7 -232)"/><path class="cls-3" d="M605.5,332.2c.1.2.3.3.3.5.1-.1.3-.2.4-.3a.38.38,0,0,0-.6-.1c-.4.3,0,.6,0,.9.1-.1.3-.1.4-.2-.1-.1-.2-.2-.3-.2-.2-.2-.5,0-.4.2.1.7,1,.7,1.5.5.3-.1.2-.6-.1-.5s-.8.3-.9-.2a.76.76,0,0,1-.4.2c.1.1.2.2.3.2s.4.1.4-.2a.37.37,0,0,0-.1-.3v-.1c0-.1-.1-.2-.3-.2.1.3.6,0,.4-.3a4.35,4.35,0,0,1-.4-.7c-.1.2-.4.6-.2.8Z" transform="translate(-8.7 -232)"/><path class="cls-3" d="M698.2,245.5a2.19,2.19,0,0,0,.5.3c.2.1.5-.2.3-.4s-.2-.1-.2-.2l-.3.3c.4.2.2,1,.2,1.4a.25.25,0,0,0,.5,0v-.8c0-.1.1-.4,0-.5a1.21,1.21,0,0,0-.5-.5c-.2-.1-.5.1-.3.3l.3.3c.1-.1.2-.3.3-.4a.52.52,0,0,0-.4-.2c-.3-.2-.6.2-.4.4Z" transform="translate(-8.7 -232)"/><path class="cls-3" d="M649.9,246h.5a.25.25,0,0,0,0-.5h-.5c-.3.1-.3.6,0,.5Z" transform="translate(-8.7 -232)"/><path class="cls-3" d="M650.1,245.8l.2.2c.2.2.6-.1.4-.4l-.2-.2c-.2-.2-.6.1-.4.4Z" transform="translate(-8.7 -232)"/><path class="cls-3" d="M640.6,237.9a5.64,5.64,0,0,0-.4-1.2c-.1.1-.3.2-.4.3a3.45,3.45,0,0,0,.8.9c.1.4.6.1.4-.2s-.5-.7-.8-1a.25.25,0,1,0-.4.3,2,2,0,0,1,.3,1.1c.1.3.5.1.5-.2Z" transform="translate(-8.7 -232)"/><path class="cls-3" d="M384,333.3a1,1,0,0,0,1.1.5.26.26,0,0,0-.1-.5.55.55,0,0,1-.5-.3c-.2-.3-.7,0-.5.3Z" transform="translate(-8.7 -232)"/><path class="cls-3" d="M383.9,323.1H383a2.56,2.56,0,0,0-1.8,4.3,11.51,11.51,0,0,0,1.7,1.4c2.5,1.7,4.8-1.9,3-3.9a5.65,5.65,0,0,0-2.4-1.6,14.15,14.15,0,0,0-2.9-.2c.4.1.8.2,1.3.3a5.67,5.67,0,0,1-2.2-1.6l-3.5,3.5c1.3,1.2,2.6,2.3,3.9,3.5a12.65,12.65,0,0,1,3.1,3c1.7,2.8,6,.2,4.3-2.5a15,15,0,0,0-3.5-3.6c-1.5-1.3-2.9-2.5-4.3-3.8-2.4-2.1-5.8,1.2-3.5,3.5a11.8,11.8,0,0,0,3.2,2.3,4.09,4.09,0,0,0,2.2.3c.7,0,.5-.2.9.3l3-3.9a4.35,4.35,0,0,1-.7-.6c-.6,1.4-1.2,2.8-1.8,4.3a1.39,1.39,0,0,1,.9,0c3.3.1,3.3-4.9,0-5Z" transform="translate(-8.7 -232)"/><path class="cls-3" d="M414.4,325.9a78,78,0,0,1,6.8,6.1c2.3,2.2,5.9-1.3,3.5-3.5a85.45,85.45,0,0,0-7.8-6.9,2.47,2.47,0,0,0-3.4.9,2.66,2.66,0,0,0,.9,3.4Z" transform="translate(-8.7 -232)"/><path class="cls-3" d="M422.4,333.2a1.38,1.38,0,0,1,.4.3c.1-.1.3-.2.4-.3l-.2-.2c-.2-.2-.6.1-.4.4l.3.3.4-.4c-.1-.1-.2-.1-.2-.2-.2-.2-.5,0-.4.3a1.38,1.38,0,0,0,.3.4c.3.2.5-.3.3-.4l-.2-.2c-.1.1-.3.2-.4.3.1.1.2.1.2.2.2.2.6-.1.4-.4l-.3-.3-.4.4.2.2c.2.2.6-.1.4-.3a1.21,1.21,0,0,0-.5-.5.25.25,0,1,0-.3.4Z" transform="translate(-8.7 -232)"/><path class="cls-3" d="M451.5,333.3c0,.1,0,.2.1.2a.22.22,0,0,0,.2.2h.6a.25.25,0,0,0,0-.5h-.6c.1.1.2.1.2.2,0-.1,0-.2-.1-.2.1-.3-.4-.2-.4.1Z" transform="translate(-8.7 -232)"/><path class="cls-3" d="M453.5,324.3a3.09,3.09,0,0,0-5.5,2c0,1.9,1.3,4.1,2.4,5.6a2.58,2.58,0,0,0,3.4.9,2.47,2.47,0,0,0,.9-3.4c-.4-.6-.8-1.2-1.2-1.9-.1-.3-.3-.5-.4-.8,0-.1-.1-.2-.1-.3-.2-.6-.2-.4-.2.7l-.9.9c-.1,0-.1.1-.2.1h-1.3c.1,0,.2.1.3.1-.4-.2-.7-.4-1.1-.6.2.1.3.3.4.4a2.42,2.42,0,0,0,3.5,0,2.87,2.87,0,0,0,0-3.7Z" transform="translate(-8.7 -232)"/><path class="cls-3" d="M454,326.5c-.7-.6-1-1.3-1.6-1.9a4.72,4.72,0,0,0-2.5-1.1c-.5-.1.4.2.2.1-.4-.3-.7-.6-1-.8a6.72,6.72,0,0,0-1.2-.6c-.1,0-1-.4-.7-.2a2.48,2.48,0,0,0-3.5,3.5,60.17,60.17,0,0,0,5,5.1c2.4,2.2,5.9-1.3,3.5-3.5-1.7-1.6-3.4-3.3-5-5.1l-3.5,3.5c.9.8,2,1,2.9,1.6.5.3.8.7,1.3,1a8.3,8.3,0,0,0,1.8.5c-.4-.2-.7-.4-1.1-.6.7.6,1.1,1.5,1.8,2.2,2.5,1.9,6.1-1.6,3.6-3.7Z" transform="translate(-8.7 -232)"/><line class="cls-2" x1="489.3" y1="88.1" x2="500" y2="97"/><path class="cls-3" d="M504.5,325.1c3.2,0,3.2-5,0-5s-3.3,5,0,5Z" transform="translate(-8.7 -232)"/><line class="cls-2" x1="534" y1="9.7" x2="544.2" y2="18.7"/><path class="cls-4" d="M522.9,306.4a6,6,0,0,0,3.2-1.5c.2-.2-.1-.6-.4-.4a5.93,5.93,0,0,1-3,1.4c-.3.1-.1.5.2.5Z" transform="translate(-8.7 -232)"/><path class="cls-4" d="M526.9,301.4a6.56,6.56,0,0,1-1.7,3.9c-.2.2.1.6.4.4a7.38,7.38,0,0,0,1.9-4.2c-.1-.4-.6-.4-.6-.1Z" transform="translate(-8.7 -232)"/><line class="cls-2" x1="652.7" y1="124.4" x2="661.9" y2="132.1"/><path class="cls-3" d="M671,355.3c-1.2-.2-2.3-.3-3.5-.5-.2,0-.4-.1-.6-.1s-.2,0,.2.1a3.19,3.19,0,0,0-1.6-.9,2.45,2.45,0,0,0-2.4,4.1,9.22,9.22,0,0,0,3.1,2.8c1.4.7,2.6,1.7,3.9,2.5a2.47,2.47,0,0,0,3.4-.9,2.58,2.58,0,0,0-.9-3.4,26.37,26.37,0,0,0-3.5-2.3,3.33,3.33,0,0,1-1-.6,12.94,12.94,0,0,1-1.5-1.7l-2.4,4.2c.1,0,.2.1.3.1-.4-.2-.7-.4-1.1-.6a5.1,5.1,0,0,0,2.6,1.4l3.7.6a2.61,2.61,0,0,0,3.1-1.7,2.54,2.54,0,0,0-1.8-3.1Z" transform="translate(-8.7 -232)"/><path class="cls-3" d="M671.1,364.1c-.2-.1-.5-.2-.7-.3a.22.22,0,0,0-.3.3.76.76,0,0,0,.8.6.25.25,0,0,0,0-.5c-.1-.1-.2-.2-.3-.2l-.3.3c.2.1.5.2.7.3s.4-.4.1-.5Z" transform="translate(-8.7 -232)"/><line class="cls-2" x1="755.3" y1="7.3" x2="764.4" y2="15.2"/><path class="cls-3" d="M768.5,245.5q-.6-.15-.3,0c.2.1.1,0-.2-.2l-.3-.6a14.19,14.19,0,0,1-.5-2.2,2.87,2.87,0,0,0-4.8-1.3c-2.6,2.6,2.1,6.7,4.1,8,2.3,1.5,5.2-2.1,3-3.9a4.71,4.71,0,0,1-1.3-1.5l-3.9,3c1.3,1.4,3.2,2.1,4.4,3.6l3-3.9c-1.8-1-2.8-2.8-4.6-3.9-2.7-1.7-5.3,2.6-2.5,4.3a12.61,12.61,0,0,1,2,2,11.53,11.53,0,0,0,2.6,1.9c2.6,1.5,4.8-1.8,3-3.9-1.2-1.5-3.1-2.2-4.4-3.6-1.9-2.1-5.4.6-3.9,3a12.66,12.66,0,0,0,2.1,2.5l3-3.9a7.1,7.1,0,0,1-2.7-3c.1.4.2.8.3,1.3V243c-.4.7-.8,1.4-1.2,2.2.1,0,.1-.1.2-.1l-1.9.3c.1,0,.2.1.3.1a14.31,14.31,0,0,0-1.5-1.1.35.35,0,0,0,.1.2c-.1-.4-.2-.8-.3-1.3.4,3,1.5,6.5,4.8,7.2s4.5-4.3,1.4-5Z" transform="translate(-8.7 -232)"/><path class="cls-3" d="M773.2,247.5h.2c.2,0,.2-.4.1-.5h.1c-.1.1-.3.1-.4.2a1.13,1.13,0,0,1-.1.8v.7a.25.25,0,0,0,.5,0,6.88,6.88,0,0,1,.2-1.3c0-.3,0-.4-.2-.6s-.4-.1-.4.2c-.2.2-.2.4,0,.5a4.33,4.33,0,0,1,.1-.5h-.2a.26.26,0,1,0,.1.5Z" transform="translate(-8.7 -232)"/><line class="cls-2" x1="689.7" y1="7.3" x2="698.7" y2="15.2"/><path class="cls-3" d="M702.6,243.6a4.71,4.71,0,0,1-1.5-1.3,11.72,11.72,0,0,0-1.5-1.6c-1.8-1.9-4.7.1-4.2,2.4a27.83,27.83,0,0,0,3.8,8.2c1.4,2.3,4.4,1.1,4.7-1.3a13.1,13.1,0,0,0-.7-6.2c-1.6.4-3.2.9-4.8,1.3a6.91,6.91,0,0,0,1.7,3c.9.8,2,1,3,1.7a2.47,2.47,0,0,0,3.4-.9,2.56,2.56,0,0,0-.9-3.4c-.6-.5-1.5-.6-2.1-1.1-.5-.3.2.2,0-.1a1.42,1.42,0,0,1-.2-.6c-1.1-3-5.9-1.7-4.8,1.3a10.18,10.18,0,0,1,.5,4.9c1.6-.4,3.1-.8,4.7-1.3a22.49,22.49,0,0,1-3.3-7l-4.2,2.4c.3.3.7.5,1,.8-.3,0-.2.2.1.4s.3.5.5.7a14.31,14.31,0,0,0,2.4,1.9c2.7,1.8,5.2-2.5,2.4-4.2Z" transform="translate(-8.7 -232)"/><path class="cls-3" d="M703.2,244.6a1.38,1.38,0,0,1,.4.3.25.25,0,1,0,.4-.3c-.2-.3-.4-.5-.7-.5s-.4.4-.1.5Z" transform="translate(-8.7 -232)"/><path class="cls-3" d="M707.3,247.3a.76.76,0,0,0,.5.2c.2,0,.4-.3.2-.4s-.2-.1-.2-.2a.32.32,0,0,0-.5.4.37.37,0,0,1,.3.1c.1-.1.1-.3.2-.4h-.1c-.3-.3-.6,0-.4.3Z" transform="translate(-8.7 -232)"/><path class="cls-3" d="M707.3,247.1l.2.2c.2.2.6-.2.4-.4l-.2-.2c-.3-.1-.6.2-.4.4Z" transform="translate(-8.7 -232)"/><line class="cls-2" x1="718.3" y1="124.5" x2="727.3" y2="132.4"/><path class="cls-3" d="M736.4,356.7a9.23,9.23,0,0,1-2.5-1.5,10.85,10.85,0,0,0-2.8-1.5c-2.8-.8-4.3,3.1-1.9,4.6a16.61,16.61,0,0,1,2.7,2.6,6.57,6.57,0,0,0,1.7,1.2c.3.2.5.4.2,0,.2.3.3.6.5.9,1.7,2.7,6.1.2,4.3-2.5a8.58,8.58,0,0,0-1.3-2c-.6-.5-1.3-.7-1.9-1.2-1.3-1.1-2.3-2.4-3.7-3.4-.6,1.5-1.3,3-1.9,4.6a12,12,0,0,1,2.4,1.5,8,8,0,0,0,2.9,1.5c3.1.7,4.5-4.1,1.3-4.8Z" transform="translate(-8.7 -232)"/><path class="cls-3" d="M735.9,364.8h.3c.3,0,.2-.5-.1-.5h-.3c-.4,0-.2.5.1.5Z" transform="translate(-8.7 -232)"/><path class="cls-3" d="M735.6,364.6h0a.25.25,0,0,0,.4.1c-.2.1-.1.1.1,0h.2a.26.26,0,0,0-.1-.5.75.75,0,0,0-.5.1.6.6,0,0,1,.4.1h0c-.3-.3-.7,0-.5.2Z" transform="translate(-8.7 -232)"/></g><g id="Layer_2" data-name="Layer 2"><path class="cls-4" d="M126.8,324.7V257h0V232h-30L67.7,301.7,38.6,232H8.9v25.1h0v67.7H8.7v25.1H36.9V295.4l22.9,54.5h16l22.9-54.5v28.2c0,.2.1.4.1.6v25.7H127V324.8h-.2Z" transform="translate(-8.7 -232)"/></g><g id="Layer_5" data-name="Layer 5"><g id="_Group_2" data-name="&lt;Group&gt;"><path class="cls-5" d="M764.5,331.9V357H726.7V331.9h.1V310.5H698.6V357H661V331.9h0V269.6a2.92,2.92,0,0,0,.2-.9V239h37.4v29.8a.9.9,0,0,0,.1.5v16.3h28.2V269a1.7,1.7,0,0,0,.1-.7V239h37.5v92.9Z" transform="translate(-8.7 -232)"/><path class="cls-5" d="M640.2,236.5v18.7H616.5v49.1h0v20.2h-21V305.7h0V255.1H571.7V236.4h68.5Z" transform="translate(-8.7 -232)"/><path class="cls-5" d="M547.8,251.7v56.2c-.3,1.4-.2,2.8-.4,4.2a9.83,9.83,0,0,1-1.1,3.8,12.13,12.13,0,0,1-1,1.4l-4.2,4.2a20.89,20.89,0,0,1-8.2,3h-26a18.67,18.67,0,0,1-8.8-3.7h0c-1.1-1-2.1-2.1-3.1-3.2-2.4-2.6-3.1-5.7-3.4-8.9V253.3a26.52,26.52,0,0,1,3.3-10.3c.1-.1.1-.2.2-.2.3-.4.7-.7,1-1.1l2.3-2.3a18.82,18.82,0,0,0,2.3-1.6,8.49,8.49,0,0,1,2.2-.9c.5-.1,1-.3,1.5-.4l29.3-.1h0a23.36,23.36,0,0,1,2.6.4,26,26,0,0,1,2.5,1,10.91,10.91,0,0,1,1.1.6c.2.1.3.3.5.4s.5.4.8.6l4.6,4.6.6.9h0a14.71,14.71,0,0,1,.8,3C547.3,249.1,547.6,250.4,547.8,251.7Zm-21,6.4a1.68,1.68,0,0,0-.3-1.2h0a3.59,3.59,0,0,0-.7-1h0c-.1-.1-.2-.2-.3-.2a3.15,3.15,0,0,0-2.3-.5h-4.1c-1.8,0-4.8-.5-5.8,1.3h0c-.1.1-.2.2-.2.3a.1.1,0,0,1-.1.1l-.3.6h0v.2h-.1v45.4h.1a.37.37,0,0,0,.1.3h0c.2,1.1,1.4,1.7,2.6,2h0c.2.1.3.1.5.2h7.7a7.19,7.19,0,0,0,2.1-1.2c.5-.4,1-.8,1.1-1.3l.1-.1V258.1Z" transform="translate(-8.7 -232)"/><path class="cls-5" d="M462.5,305.9v18.8H441.4V305.9h0v-22l-17.1,40.8h-12l-17.1-40.8v22h0v18.7H374.1V305.8h0V255.2h0V236.4h22.3l21.8,52.2L440,236.4h22.4v69.5Z" transform="translate(-8.7 -232)"/><path class="cls-5" d="M340,305.9v18.8H318.9V305.9h.1v-22l-17.1,40.8h-12l-17.1-40.8v22h0v18.8H251.7V305.9h0V255.6a71.81,71.81,0,0,0-.2-13.1v-6.1H274l21.8,52.2,21.8-52.2H340v69.5Z" transform="translate(-8.7 -232)"/><path class="cls-5" d="M219.2,324.7H200.4c-.7-2.8-1.8-5.5-2.4-8.4-.8-3.4-1.1-6.9-1.9-10.4h0l-1.4-7.9h-13l-1.3,7.5c0,.1,0,.1-.1.2-.5,3.5-1.7,6.7-2.1,10.2-.3,3-.7,5.9-1,8.8h-20a24.37,24.37,0,0,0,.1-2.7c.6-4.8,1.8-9.5,2.4-14.2.8-6.3,1.9-12.4,2.9-18.6,0-.2.1-.3.1-.5h0l6.7-32.7c.1-.3.2-.6.3-1,.5-2.8.8-5.6,1.3-8.4.6-3.4,1.4-6.7,2.1-10.1h29.4c.8,6.6,2.7,13,4.3,19.5.1.2.1.3.2.4l9.7,47.6v.2c0,.1.1.2.1.4l.3,1.4h0a3,3,0,0,1,.2,1,1.27,1.27,0,0,0,.1.6,3.75,3.75,0,0,0,.1,1C218.4,313.8,218.4,319.3,219.2,324.7ZM192.5,286l-4.4-25.4L183.7,286Z" transform="translate(-8.7 -232)"/><path class="cls-5" d="M127.6,324.7v25.1H99.4V324.1a1.27,1.27,0,0,0-.1-.6V295.3L76.4,349.8h-16L37.5,295.3v54.5H9.3V324.7h.2V232H39.3l29.1,69.7L97.5,232h30v25.1h0v67.6Z" transform="translate(-8.7 -232)"/></g><line class="cls-6" x1="207.1" y1="70.8" x2="211.8" y2="92.2"/><path class="cls-4" d="M218.3,317.3c.2.7.4,1.3.6,2,.2,0,.3-.1.5-.1a8.43,8.43,0,0,0-.6-1.4c-.1-.2-.5-.1-.5.1a9.47,9.47,0,0,0,.7,2.9c.1.3.5.1.5-.2-.2-.6-.3-1.3-.5-1.9a.26.26,0,0,0-.5.1,7.51,7.51,0,0,0,.5,2.6c.1.2.5.1.5-.1a13.8,13.8,0,0,0-.3-2,.26.26,0,0,0-.5.1,5.34,5.34,0,0,0,.2,2.2.26.26,0,0,0,.5-.1,3.81,3.81,0,0,0-.1-1.5.26.26,0,0,0-.5.1,4.51,4.51,0,0,0,.5,2.6c.1.3.5.1.5-.2a6,6,0,0,0-.6-1.9c-.1-.2-.5-.1-.5.1a6.15,6.15,0,0,0,.7,2.3c.1.2.4.1.5-.1a2.74,2.74,0,0,0-.6-2.1c-.1-.2-.4-.2-.5.1a2.92,2.92,0,0,0,.4,2.4c.2.3.5.1.5-.2a6,6,0,0,0-.6-1.9c-.1-.2-.4-.1-.5.1a3.73,3.73,0,0,0,.3,2.1c0,.1.2.2.3.2.9-.3.3-1.5-.1-2-.1-.1-.4-.1-.4.1-.1.5-.1,2,.8,1.7.6-.2.4-1.1-.1-1.2-.1,0-.2,0-.2.1a1.59,1.59,0,0,0,0,1.5.22.22,0,0,0,.2.2c1.4.1.2-2.5-.5-1.1-.2.4.2,1.4.8,1.2s.3-1,.1-1.4a.21.21,0,0,0-.4,0c-.2.4-.4,1.2.1,1.4s.7-.2.8-.6c.1-1.2-1.5-.6-.7.3a.19.19,0,0,0,.3,0,.43.43,0,0,0,.2-.7c0-.1-.1-.1-.2-.1-.7,0-.8.6-.3,1.1a.3.3,0,0,0,.4,0c.2-.3.3-.3.3-.6a.22.22,0,0,0-.2-.2c-.6-.1-.8.4-.5.9.1.1.2.2.3.1l.1-.1a.37.37,0,0,0,.1-.3v-.2c0-.1-.1-.1-.2-.2a.52.52,0,0,0-.5.9.25.25,0,0,0,.4-.1v-.1c.1-.1,0-.2,0-.3h0c-.2-.2-.6.1-.4.4v-.2a.6.6,0,0,0,.4-.1c0-.1-.1-.2-.1-.3s.2.1.3.1c0-.3-.1-.6-.1-.9h-.4c.5.3.5,0-.1-1-.1,0-.3.1-.4.1a1,1,0,0,1,.4,1.1c.1.1.2.1.3.2a4.65,4.65,0,0,1-.3-2c-.2,0-.3.1-.5.1a6.07,6.07,0,0,1,.5,1.8c.2-.1.3-.1.5-.2a2.36,2.36,0,0,1-.3-2,.9.9,0,0,0-.5.1,2.38,2.38,0,0,1,.5,1.8c.2,0,.3-.1.5-.1a3.86,3.86,0,0,1-.6-2c-.2,0-.3.1-.5.1a5.78,5.78,0,0,1,.6,1.7c.2-.1.3-.1.5-.2a4,4,0,0,1-.4-2.4.9.9,0,0,0-.5.1,6.6,6.6,0,0,1,.1,1.4.9.9,0,0,0,.5-.1,5,5,0,0,1-.2-2.1.9.9,0,0,0-.5.1,5.66,5.66,0,0,1,.3,1.8c.2,0,.3-.1.5-.1a6.44,6.44,0,0,1-.5-2.4.9.9,0,0,0-.5.1c.2.6.3,1.3.5,1.9.2-.1.3-.1.5-.2a8.28,8.28,0,0,1-.7-2.7c-.2,0-.3.1-.5.1a6.12,6.12,0,0,1,.5,1.2c.1.3.6.2.5-.1-.2-.7-.4-1.4-.6-2-.5-.1-.9,0-.8.3Z" transform="translate(-8.7 -232)"/><path class="cls-4" d="M218.5,324.6a3.66,3.66,0,0,0,2.3-.2c.1-.1.2-.2.1-.4a5.36,5.36,0,0,1-.5-1.1c-.1-.3-.6-.2-.5.1a3.38,3.38,0,0,0,.6,1.2c0-.1.1-.2.1-.4a3.46,3.46,0,0,1-2,.2c-.2,0-.4.5-.1.6Z" transform="translate(-8.7 -232)"/><path class="cls-4" d="M219.2,323.1c.1.3.3.6.4.9s.4.3.5,0a.6.6,0,0,0,.1-.4.9.9,0,0,0-.5.1h0a.22.22,0,0,0,.2.2h.1a.22.22,0,0,0,.2-.2h0c.1-.3-.4-.4-.5-.1h0c.1-.1.2-.1.2-.2h-.1c.1.1.2.1.2.2h0a.26.26,0,0,0-.5.1v.3h.5c-.1-.3-.3-.6-.4-.9s-.5-.3-.4,0Z" transform="translate(-8.7 -232)"/><line class="cls-2" x1="217.7" y1="80.3" x2="222.5" y2="101.7"/><path class="cls-3" d="M229.1,327.2a3.3,3.3,0,0,1,0-1.4h-.5a13.33,13.33,0,0,0,.3,2.8c0,.3.5.2.5-.1a5.08,5.08,0,0,0-.3-1.7.26.26,0,0,0-.5.1,12.21,12.21,0,0,0,.6,2.6.26.26,0,0,0,.5-.1,12.59,12.59,0,0,0-.4-2.7.26.26,0,0,0-.5.1,6.7,6.7,0,0,0,.7,3.1c.1.2.5.1.5-.1a11.93,11.93,0,0,0-.5-2.6.26.26,0,0,0-.5.1,10.59,10.59,0,0,0,.5,3.1c.1.2.5.2.5-.1a14.19,14.19,0,0,0-.5-2.2.26.26,0,0,0-.5.1,6.15,6.15,0,0,0,.5,3c.1.2.5.1.5-.1a8.65,8.65,0,0,0-.6-2.3c-.1-.2-.4-.1-.5.1a3.5,3.5,0,0,0,.5,2.8c.1.2.4.2.5-.1a4,4,0,0,0-.2-1.9c-.1-.2-.4-.3-.5,0-.1.6-.4,2,.5,2.1a.37.37,0,0,0,.3-.1,2.26,2.26,0,0,0-.1-1.8c-.1-.2-.4-.1-.5.1-.2.5-.3,1.9.5,2a.37.37,0,0,0,.3-.1,1.57,1.57,0,0,0-.2-1.6c-.1-.2-.4-.2-.5.1a2.25,2.25,0,0,0,.2,1.8c.1.2.4.1.5-.1a1.41,1.41,0,0,0-.1-1.4c-.1-.2-.4-.2-.5.1s-.2,1.6.6,1.6.4-1,.1-1.3a.19.19,0,0,0-.3,0c-.6.3-.5,1.5.2,1.6a.37.37,0,0,0,.3-.1,1.06,1.06,0,0,0-.2-1.2.19.19,0,0,0-.3,0c-.5.2-.5,1.4,0,1.5.9.2.5-1,.2-1.3a.3.3,0,0,0-.4,0c-.3.4-.7,1.3.2,1.4a.64.64,0,0,0,.3-1.2c-.6-.4-1.3.4-.9,1s1.2.1,1.2-.5a.27.27,0,0,0-.4-.2c-.2.2-.2.2-.2.5a.25.25,0,0,0,.5,0,.1.1,0,0,1,.1-.1c-.1-.1-.3-.1-.4-.2v-1.1a.9.9,0,0,0-.5.1c0,.3.1.7.1,1a.9.9,0,0,0,.5-.1,1.4,1.4,0,0,1-.2-1.4.9.9,0,0,0-.5.1c.3.9.3,1,.2.5a1,1,0,0,1,.1-.9.9.9,0,0,0-.5.1q.3.9.3-.3h-.5a3.33,3.33,0,0,1,.2,1.7.9.9,0,0,0,.5-.1,3.15,3.15,0,0,1-.4-2.5.9.9,0,0,0-.5.1,7.27,7.27,0,0,1,.6,2.1c.2,0,.3-.1.5-.1a5.33,5.33,0,0,1-.4-2.8.9.9,0,0,0-.5.1,16,16,0,0,1,.5,2.1.9.9,0,0,0,.5-.1,10.47,10.47,0,0,1-.5-3,.9.9,0,0,0-.5.1,20.48,20.48,0,0,1,.5,2.4c.2,0,.3-.1.5-.1a5.66,5.66,0,0,1-.7-2.9.9.9,0,0,0-.5.1,21.66,21.66,0,0,1,.4,2.5.9.9,0,0,0,.5-.1,11,11,0,0,1-.6-2.6c-.2,0-.3.1-.5.1a7.58,7.58,0,0,1,.3,1.6.9.9,0,0,0,.5-.1l-.3-2.7a.25.25,0,0,0-.5,0,7.52,7.52,0,0,0,0,1.5c-.1.1.4-.1.3-.4Z" transform="translate(-8.7 -232)"/><path class="cls-3" d="M229.6,332.3c-.4.4-.1,1.1.5.9s.6-1-.1-.8c-.5.1-.6.9-.1,1s1.2-.8.5-1a.65.65,0,0,0-.7,1c.4.4,1.3-.1,1-.6s-1.2,0-1.2.5c-.1.7.7.6,1,.2.5-.7-.8-.9-1-.2a.35.35,0,0,0,.3.5.87.87,0,0,0,.9-.5c.1-.1,0-.3-.1-.4a2.3,2.3,0,0,0-1.4.4c-.2.1-.1.4.1.5h.8c0-.2-.1-.3-.1-.5-.2,0-.5.1-.7.1s-.2.4-.1.5a.9.9,0,0,0,.5.1,4.1,4.1,0,0,1,1.1-.1.25.25,0,0,0,0-.5h-.7c-.1,0-.4.1-.6.1a.9.9,0,0,1-.1.5c.2,0,.5-.1.7-.1s.2-.5-.1-.5h-.7c0,.2.1.3.1.5a3,3,0,0,1,1-.4c0-.1-.1-.2-.1-.4-.1.2-.2.2-.4.2,0,.1,0,.2.1.2s.2-.1.3-.2l-.2-.2c-.1.1-.1.1-.1-.2s0-.3-.1-.2c.3-.2-.1-.6-.3-.4Z" transform="translate(-8.7 -232)"/><path class="cls-3" d="M229.5,333.8a12.05,12.05,0,0,1,1.9,0c.3,0,.4-.2.2-.4a5.58,5.58,0,0,1-.5-.8c-.1-.3-.6-.2-.5.1a3.33,3.33,0,0,0,.6,1,.76.76,0,0,0,.2-.4,13.33,13.33,0,0,0-2,0c-.3,0-.3.5.1.5Z" transform="translate(-8.7 -232)"/><path class="cls-3" d="M210.8,245.4a.76.76,0,0,1,.4.2c0-.1,0-.2-.1-.2v.1c.1-.1.2-.1.3-.2a.37.37,0,0,1-.3-.1c-.2,0-.4.2-.3.4s.1.2.3.2.4-.4.1-.5h0a1.38,1.38,0,0,0-.3.4.37.37,0,0,1,.3.1c.1,0,.3,0,.3-.2.1-.4-.4-.6-.7-.6-.1-.2-.3.3,0,.4Z" transform="translate(-8.7 -232)"/><line class="cls-6" x1="189.1" y1="81.1" x2="191.5" y2="92.2"/><path class="cls-4" d="M200,323.3c-.1.3-.1.6-.2,1,0,.2.2.3.3.2s.4-.1.6-.3a.25.25,0,1,0-.3-.4c-.2.1-.3.2-.5.2.1.1.2.2.3.2,0-.3.1-.6.1-.8.3-.2-.2-.4-.3-.1Z" transform="translate(-8.7 -232)"/><path class="cls-4" d="M199.7,323.2a1.28,1.28,0,0,0,.2,1.2c.4.4,1.1.2,1.6.1a.25.25,0,0,0,0-.5c-.3,0-.7.2-.9.1-.4-.1-.4-.5-.3-.8a.32.32,0,0,0-.6-.1Z" transform="translate(-8.7 -232)"/><line class="cls-6" x1="170.9" y1="73.9" x2="169.2" y2="92.4"/><path class="cls-4" d="M177.9,320.8a3.4,3.4,0,0,0-.1-1,.26.26,0,0,0-.5.1v2.4h.5c0-1.2,0-2.3.1-3.5h-.5a16.32,16.32,0,0,1-.3,4.4.9.9,0,0,1,.5.1,2,2,0,0,1,.1-.7c0-.3-.4-.3-.5-.1a5.28,5.28,0,0,0-.1,1.3.25.25,0,0,0,.5,0,2,2,0,0,1,.1-.7c0-.3-.4-.3-.5-.1a3.75,3.75,0,0,0-.1,1,.25.25,0,0,0,.5,0v-.4c0-.3-.4-.3-.5-.1l-.3.3a.25.25,0,0,0,0,.5h1.1c.3,0,.3-.4.1-.5a1.09,1.09,0,0,0-1.1.2c-.1.1-.1.4.1.4a1.39,1.39,0,0,0,.9,0,.22.22,0,0,0,.2-.2V322a.25.25,0,0,0-.5,0c0,.3.1,2.1-.5,1.9,0,.1.1.3.1.4a1.27,1.27,0,0,0,.6-.1.9.9,0,0,1,.1-.5h-1.1v.5a.7.7,0,0,0,.8-.6.9.9,0,0,1-.5-.1v.4h.5a2.77,2.77,0,0,1,.1-.9.9.9,0,0,1-.5-.1,2,2,0,0,1-.1.7h.5a4.87,4.87,0,0,1,.1-1.2.9.9,0,0,1-.5-.1,2,2,0,0,1-.1.7c0,.3.4.3.5.1a17.06,17.06,0,0,0,.3-4.5.25.25,0,0,0-.5,0c-.1,1.2-.1,2.3-.1,3.5a.25.25,0,0,0,.5,0v-2.4a.9.9,0,0,0-.5.1,2.49,2.49,0,0,1,.1.8c0,.5.5.5.5.2Z" transform="translate(-8.7 -232)"/></g><path class="cls-7" d="M152.59,409.43h-14v-1.06a4.22,4.22,0,0,0,1.06-.32,2.28,2.28,0,0,0,1.08-2.11,4.77,4.77,0,0,0-.05-.76,5.85,5.85,0,0,0-1.6-2.84,8.72,8.72,0,0,0-5.55-3.13,13.84,13.84,0,0,0-2.35-.25l-1.91,5.51a6.12,6.12,0,0,0-.36,2.14,1.56,1.56,0,0,0,.14.78,2.08,2.08,0,0,0,.73.72,2.7,2.7,0,0,0,.92.31v1h-9v-1a3.63,3.63,0,0,0,.81-.34,8.93,8.93,0,0,0,.82-.64,5.47,5.47,0,0,0,1-1.07A6.09,6.09,0,0,0,125,405l7.51-19.27c.09-.22.17-.43.25-.65a2,2,0,0,0,.1-.6,1.11,1.11,0,0,0-.17-.64,1,1,0,0,0-.35-.33,2.35,2.35,0,0,0-.37-.14v-1h12v1.19a.94.94,0,0,0-.9.46,1,1,0,0,0-.1.44,1.5,1.5,0,0,0,.08.48s.08.22.19.55l7,21.15q.19.31.3.51a2.72,2.72,0,0,0,.68.8,2.54,2.54,0,0,0,.6.32,3.69,3.69,0,0,0,.7.18Zm-14.45-11.95-3-9.6-2.59,7.62.81,0a7.45,7.45,0,0,1,1.43.3,11.47,11.47,0,0,1,2.06.84A10,10,0,0,1,138.14,397.48Z" transform="translate(-8.7 -232)"/><path class="cls-7" d="M167.45,409.43H155v-1.06a2.2,2.2,0,0,0,1.73-.76,1.81,1.81,0,0,0,.48-.92,5.64,5.64,0,0,0,.12-1.16V386.27a5.84,5.84,0,0,0-.14-1.49,1.81,1.81,0,0,0-.86-1.08l-.52-.22a2,2,0,0,0-.73-.13v-1.06l10.06-.51v23.61a6.92,6.92,0,0,0,.13,1.49,1.68,1.68,0,0,0,.6,1,1.9,1.9,0,0,0,.7.4,3,3,0,0,0,.9.12Z" transform="translate(-8.7 -232)"/><path class="cls-7" d="M182.22,409.43H169.75v-1.06a2.22,2.22,0,0,0,1.74-.76,1.8,1.8,0,0,0,.47-.92,5.64,5.64,0,0,0,.12-1.16V386.27a6,6,0,0,0-.13-1.49,1.87,1.87,0,0,0-.87-1.08c-.11-.05-.28-.13-.52-.22a2,2,0,0,0-.73-.13v-1.06l10.06-.51v23.61a6.92,6.92,0,0,0,.13,1.49,1.73,1.73,0,0,0,.6,1,1.94,1.94,0,0,0,.71.4,3,3,0,0,0,.89.12Z" transform="translate(-8.7 -232)"/><path class="cls-7" d="M195.83,396l-2.9,6.9a2.19,2.19,0,0,0-.49-.6,2.52,2.52,0,0,0-.68-.39,1.77,1.77,0,0,0-.62-.15h-3.63a2.91,2.91,0,0,0-.57,0,1.89,1.89,0,0,0-.54.18,3.07,3.07,0,0,0-1.31.92l-.62-.32,3-6.93a1.24,1.24,0,0,0,.46.63,1.78,1.78,0,0,0,1.06.33h4.47a3.82,3.82,0,0,0,.55,0,1.69,1.69,0,0,0,.46-.16,2.34,2.34,0,0,0,.81-.68Z" transform="translate(-8.7 -232)"/><path class="cls-7" d="M229.06,409.43H215v-1.06a4.22,4.22,0,0,0,1.06-.32,2.28,2.28,0,0,0,1.08-2.11,3.81,3.81,0,0,0,0-.76,5.85,5.85,0,0,0-1.6-2.84,10.14,10.14,0,0,0-3.39-2.54,10.27,10.27,0,0,0-2.16-.59,13.74,13.74,0,0,0-2.35-.25l-1.91,5.51a6.12,6.12,0,0,0-.36,2.14,1.56,1.56,0,0,0,.14.78,2.17,2.17,0,0,0,.73.72,2.7,2.7,0,0,0,.92.31v1h-9v-1a3.75,3.75,0,0,0,.82-.34,9.15,9.15,0,0,0,.81-.64,5.87,5.87,0,0,0,1.06-1.07,6.12,6.12,0,0,0,.67-1.4L209,385.68c.09-.22.18-.43.25-.65a2,2,0,0,0,.11-.6,1.12,1.12,0,0,0-.18-.64,1,1,0,0,0-.35-.33,2.35,2.35,0,0,0-.37-.14v-1h12v1.19a.93.93,0,0,0-.89.46.9.9,0,0,0-.11.44,1.5,1.5,0,0,0,.08.48s.08.22.19.55l7,21.15.29.51a2.88,2.88,0,0,0,.68.8,2.54,2.54,0,0,0,.6.32,3.69,3.69,0,0,0,.7.18Zm-14.44-11.95-3-9.6L209,395.5l.81,0a7.3,7.3,0,0,1,1.43.3,11.18,11.18,0,0,1,2.06.84A10.91,10.91,0,0,1,214.62,397.48Z" transform="translate(-8.7 -232)"/><path class="cls-7" d="M269.83,409.43H257.72v-1.06a3,3,0,0,0,1.49-.76,2,2,0,0,0,.59-.94,5.23,5.23,0,0,0,.14-1.38v-9.1a5.08,5.08,0,0,0-.4-2.16,1.55,1.55,0,0,0-1.43-1.06,3.69,3.69,0,0,0-2.24,1.14,3.82,3.82,0,0,0-1,1.78,9,9,0,0,0-.36,2.55v7.79a2.13,2.13,0,0,0,.18.92,2.44,2.44,0,0,0,.61.79,1.42,1.42,0,0,0,.72.34l.66.09v1.06h-12.2v-1.06l.65-.13a1.89,1.89,0,0,0,.79-.49,2.46,2.46,0,0,0,.64-1,4,4,0,0,0,.2-1.3v-9.29a4.36,4.36,0,0,0-.54-2.42,1.65,1.65,0,0,0-1.39-.8,3.29,3.29,0,0,0-2.38,1.35,4.9,4.9,0,0,0-1,2.3,11.7,11.7,0,0,0-.19,2.22v6.58a4.52,4.52,0,0,0,.19,1.42,2.09,2.09,0,0,0,.67,1,3.23,3.23,0,0,0,.53.31,3.55,3.55,0,0,0,.86.26v1h-12v-1a3.29,3.29,0,0,0,.69-.22,2.88,2.88,0,0,0,.56-.43,2.69,2.69,0,0,0,.71-1.42,7.5,7.5,0,0,0,.1-1.38V393.21a7.34,7.34,0,0,0-.1-1.49,1.7,1.7,0,0,0-.82-1.08,2.2,2.2,0,0,0-.57-.23,2.55,2.55,0,0,0-.67-.07v-1.11l8.7-.57a7.22,7.22,0,0,1,.43.8,6.71,6.71,0,0,1,.3.8,9,9,0,0,1,.41,2.49,5,5,0,0,1,1.27-1.32,15.39,15.39,0,0,1,3-2.06,8.24,8.24,0,0,1,3.8-1.06,6.55,6.55,0,0,1,1.06.08,4.62,4.62,0,0,1,2.82,1.49,10.22,10.22,0,0,1,1.25,2.66l.86-.92a9.92,9.92,0,0,1,2.64-1.85,9.33,9.33,0,0,1,4.37-1.3l.44,0c.18,0,.37,0,.59.08a6.19,6.19,0,0,1,3,1.38,3.59,3.59,0,0,1,1.22,2.76v11.72a12.63,12.63,0,0,0,.1,1.63,2.15,2.15,0,0,0,.39,1.16,3.25,3.25,0,0,0,1.81,1.14Z" transform="translate(-8.7 -232)"/><path class="cls-7" d="M295.48,396.74l-14.75,2.87a7.3,7.3,0,0,0,1.75,4.87,5.53,5.53,0,0,0,4.41,2.07,8.31,8.31,0,0,0,7.21-5.09l.81.46-2.58,7.86a7.87,7.87,0,0,0-.73-.42,1,1,0,0,0-.46-.12c-.07,0-1.36.15-3.87.46a28,28,0,0,1-3.07.24,13.41,13.41,0,0,1-1.43-.08,12.65,12.65,0,0,1-7.54-3.47,9.86,9.86,0,0,1-3.17-7.37,9.62,9.62,0,0,1,3.45-7.59,12.41,12.41,0,0,1,8.45-3c3.29,0,5.85.73,7.7,2.19A12.5,12.5,0,0,1,295.48,396.74Zm-8.37-1a4.33,4.33,0,0,0,0-.44,4.22,4.22,0,0,0-.87-2.6,2.64,2.64,0,0,0-2.19-1.15,2.82,2.82,0,0,0-.65.08,3.61,3.61,0,0,0-2.5,2.4,7.15,7.15,0,0,0-.57,2.8.88.88,0,0,0,0,.35Z" transform="translate(-8.7 -232)"/><path class="cls-7" d="M315.76,388.9l-1.49,5.45a13.6,13.6,0,0,0-1.36-.78,3.24,3.24,0,0,0-1.38-.33,2.87,2.87,0,0,0-1.32.35,6.22,6.22,0,0,0-1.42,1.12,4.84,4.84,0,0,0-1,1.89,8.82,8.82,0,0,0-.4,2.77v5.5a4.44,4.44,0,0,0,.33,1.7,3.26,3.26,0,0,0,.85,1.26,2.63,2.63,0,0,0,1.37.57v1H297.54v-1c.38-.11.6-.19.68-.22a2,2,0,0,0,.57-.41,2.67,2.67,0,0,0,.73-1.44,7.67,7.67,0,0,0,.11-1.43V393.16a5.21,5.21,0,0,0-.23-1.61,1.67,1.67,0,0,0-.74-1,2.59,2.59,0,0,0-1.2-.27v-1.13l8.84-.57a7.33,7.33,0,0,1,.39.81c.1.25.2.53.3.83s.2.63.29,1a5.35,5.35,0,0,1,.15,1.37,7.27,7.27,0,0,1,1.2-1.63,7.57,7.57,0,0,1,2.33-1.87,6.54,6.54,0,0,1,2.6-.62,4.51,4.51,0,0,1,1,.11C314.93,388.68,315.32,388.78,315.76,388.9Z" transform="translate(-8.7 -232)"/><path class="cls-7" d="M330.42,409.43H318v-1.06a2.74,2.74,0,0,0,.95-.16,2.26,2.26,0,0,0,.77-.54,1.89,1.89,0,0,0,.49-.88,4.75,4.75,0,0,0,.12-1.1c0-.38,0-.64,0-.79V393.21a5.79,5.79,0,0,0-.14-1.46,1.69,1.69,0,0,0-.8-1.06,2.68,2.68,0,0,0-1.29-.32v-1.11l10.06-.52v16.65a5.88,5.88,0,0,0,.16,1.69,1.63,1.63,0,0,0,.52.77,1.89,1.89,0,0,0,.76.41,3.56,3.56,0,0,0,.89.11Zm-2.3-26.79a4,4,0,0,1-1.1,2.81,3.53,3.53,0,0,1-2.67,1.18,2.91,2.91,0,0,1-.38,0,4.1,4.1,0,0,1-2.79-1A3.37,3.37,0,0,1,319.9,383a3.67,3.67,0,0,1,1.29-2.84,4.42,4.42,0,0,1,3.05-1.15,3.92,3.92,0,0,1,2.85,1A3.54,3.54,0,0,1,328.12,382.64Z" transform="translate(-8.7 -232)"/><path class="cls-7" d="M354.87,402.7,352,410.05l-.27-.22a1,1,0,0,0-.45-.19,5.61,5.61,0,0,0-.83-.05c-.36,0-1.15.05-2.36.16s-2.21.16-3,.16a11.85,11.85,0,0,1-8.62-3.33,11,11,0,0,1-3.41-8.17,8.84,8.84,0,0,1,3-7.14,13.06,13.06,0,0,1,6.56-2.69,12.2,12.2,0,0,1,1.41-.08,23.05,23.05,0,0,1,2.57.16l3.58.38a2.25,2.25,0,0,0,.46,0,1.08,1.08,0,0,0,.38-.15c.18-.13.36-.24.54-.35l1.79,7.89-.78.32a9,9,0,0,0-.78-1.83,6,6,0,0,0-1.18-1.64,5.29,5.29,0,0,0-3.82-1.54,4.93,4.93,0,0,0-3.77,1.6,7.43,7.43,0,0,0-1.7,5.21,9.23,9.23,0,0,0,1.41,4.78,5.81,5.81,0,0,0,4.22,3.13,7.92,7.92,0,0,0,1.06.08,6.24,6.24,0,0,0,3.63-1.09,6.66,6.66,0,0,0,2.42-3Z" transform="translate(-8.7 -232)"/><path class="cls-7" d="M380.52,409.43H373a2.12,2.12,0,0,1-1-.18,2.23,2.23,0,0,1-.73-.72,3.54,3.54,0,0,1-.46-1,2.07,2.07,0,0,1-.16-1,6.58,6.58,0,0,1-3,2.52,10.28,10.28,0,0,1-4.24.9,8.68,8.68,0,0,1-3.66-.76,4.38,4.38,0,0,1-2.25-2.15,5.36,5.36,0,0,1-.43-1.28,6.47,6.47,0,0,1-.14-1.26q0-3,3.3-5.29a20.64,20.64,0,0,1,8.63-3.06l1.65-.25,0-1.35a2.51,2.51,0,0,0-.82-1.93,2.7,2.7,0,0,0-1.53-.82c-.48-.05-.8-.07-1-.07h-.38a8.77,8.77,0,0,0-6.42,3.44,8.79,8.79,0,0,0-.84,1.49l-.79-.13.87-7.21c.16.12.3.23.43.31l.42.25a1.22,1.22,0,0,0,.66.14,14.81,14.81,0,0,0,2.93-.57c1-.27,1.72-.43,2.06-.49.71-.12,1.46-.24,2.27-.34a19.79,19.79,0,0,1,2.18-.14,11.4,11.4,0,0,1,2.83.32A9.71,9.71,0,0,1,376,390a4.71,4.71,0,0,1,1.69,2,6.88,6.88,0,0,1,.61,2.94v9.68c0,.18,0,.35,0,.51s0,.32,0,.46a4.23,4.23,0,0,0,.1.94,2.49,2.49,0,0,0,.41.84,1.9,1.9,0,0,0,.66.64,5.78,5.78,0,0,0,1.06.38Zm-9.92-9.36v-1.76c-.38-.22-1.29,0-2.72.73a5.64,5.64,0,0,0-3.19,3.58,2.65,2.65,0,0,0-.09.71,2.76,2.76,0,0,0,.6,1.76,2,2,0,0,0,1.63.76,3.41,3.41,0,0,0,.95-.17,3.68,3.68,0,0,0,2-2.07A8.12,8.12,0,0,0,370.6,400.07Z" transform="translate(-8.7 -232)"/><path class="cls-7" d="M408.93,409.43H396.59v-1a4.18,4.18,0,0,0,.79-.21,2.26,2.26,0,0,0,.62-.39,2.49,2.49,0,0,0,.76-1.06,3.92,3.92,0,0,0,.22-1.38v-9.22a4.58,4.58,0,0,0-.53-2.44,1.58,1.58,0,0,0-1.37-.81,4,4,0,0,0-2.79,1.52,4.82,4.82,0,0,0-1.22,2.67,12.07,12.07,0,0,0-.19,2.28v5.49a4.52,4.52,0,0,0,.32,1.71,3.08,3.08,0,0,0,.83,1.25,2.48,2.48,0,0,0,1.34.56v1.06H383v-1c.38-.11.61-.19.68-.22a2,2,0,0,0,.57-.41,2.67,2.67,0,0,0,.73-1.44,7.67,7.67,0,0,0,.11-1.43l0-11.71A5.06,5.06,0,0,0,385,392a2.09,2.09,0,0,0-.84-1.41,2.62,2.62,0,0,0-.57-.23,3.06,3.06,0,0,0-.67-.07V389.2l8.86-.57a6.65,6.65,0,0,1,.39.82c.1.25.2.53.3.82s.2.64.3,1a5.3,5.3,0,0,1,.15,1.37,5.3,5.3,0,0,1,1.46-1.55,10.57,10.57,0,0,1,6.81-2.74,11.19,11.19,0,0,1,1.25.08,4.61,4.61,0,0,1,3.22,2,6.41,6.41,0,0,1,1.06,3.74v12a2.16,2.16,0,0,0,.78,1.71,1.67,1.67,0,0,0,.61.38,3.16,3.16,0,0,0,.78.08Z" transform="translate(-8.7 -232)"/><path class="cls-7" d="M452.71,409.43H439v-1a3.31,3.31,0,0,0,1.33-.43.78.78,0,0,0,.33-.74,5.57,5.57,0,0,0-.6-2.06q-.41-.89-2.25-4.2a23.67,23.67,0,0,0-1.37-2.09l-1.64-2.25-1.44.68V405a6.8,6.8,0,0,0,.13,1.42,2.35,2.35,0,0,0,.44,1,2.46,2.46,0,0,0,.84.73,6.47,6.47,0,0,0,.95.25v1.06H422.83v-1.06a2,2,0,0,0,.75-.12,3,3,0,0,0,.69-.45,1.92,1.92,0,0,0,.7-1,5.5,5.5,0,0,0,.17-1.49l.05-17.74c0-.56,0-1,0-1.3a5,5,0,0,0-.42-2,1.73,1.73,0,0,0-.71-.75,2.28,2.28,0,0,0-1-.2v-1.06h19a9.69,9.69,0,0,1,4.83,1,3.68,3.68,0,0,1,1.92,2.81c0,.33.05.56.05.71a5.62,5.62,0,0,1-1.55,3.76,11.81,11.81,0,0,1-2.9,2.3,6.45,6.45,0,0,1-1.57.79c1,1.21,1.79,2.33,2.51,3.37s1.46,2.21,2.24,3.51a43.59,43.59,0,0,1,2.08,4.68c.73,1.77,1.32,2.76,1.79,2.95a5.34,5.34,0,0,0,1.28.35ZM440.1,388.12a2.56,2.56,0,0,0-1.17-2.22,4.28,4.28,0,0,0-2.54-.71,5.17,5.17,0,0,0-2,.38,1.25,1.25,0,0,0-.72.72,3,3,0,0,0-.2,1.18v6.8l.94-.3a10.79,10.79,0,0,0,3.64-2.06A5,5,0,0,0,440.1,388.12Z" transform="translate(-8.7 -232)"/><path class="cls-7" d="M479.92,399.1a10.11,10.11,0,0,1-3.17,7.86q-3.36,3.09-9.49,3.09-5.85,0-9-2.93a9.62,9.62,0,0,1-2.95-7.43,10.52,10.52,0,0,1,3.4-8,12.49,12.49,0,0,1,8.91-3.19q5.72,0,9.08,3A9.77,9.77,0,0,1,479.92,399.1Zm-8.21,0a12.18,12.18,0,0,0-.87-4.94,3.58,3.58,0,0,0-3.36-2.46c-1.34,0-2.33.77-3,2.33a12,12,0,0,0-.76,4.61,13.6,13.6,0,0,0,1,5.55c.8,1.77,1.91,2.66,3.34,2.66s2.31-.88,2.92-2.63A15.66,15.66,0,0,0,471.71,399.1Z" transform="translate(-8.7 -232)"/><path class="cls-7" d="M504.18,402.7l-2.84,7.35-.27-.22a1,1,0,0,0-.45-.19,5.61,5.61,0,0,0-.83-.05c-.36,0-1.15.05-2.36.16s-2.21.16-3,.16a11.87,11.87,0,0,1-8.62-3.33,11,11,0,0,1-3.41-8.17,8.84,8.84,0,0,1,3-7.14,13.06,13.06,0,0,1,6.56-2.69,12.2,12.2,0,0,1,1.41-.08,23.05,23.05,0,0,1,2.57.16l3.58.38a2.25,2.25,0,0,0,.46,0,1.08,1.08,0,0,0,.38-.15c.18-.13.36-.24.54-.35l1.79,7.89-.78.32a9,9,0,0,0-.78-1.83,6,6,0,0,0-1.17-1.64,5.33,5.33,0,0,0-3.83-1.54,4.91,4.91,0,0,0-3.76,1.6,7.39,7.39,0,0,0-1.71,5.21,9.23,9.23,0,0,0,1.41,4.78,5.81,5.81,0,0,0,4.23,3.13,7.65,7.65,0,0,0,1.05.08,6.3,6.3,0,0,0,3.64-1.09,6.65,6.65,0,0,0,2.41-3Z" transform="translate(-8.7 -232)"/><path class="cls-7" d="M533.54,409.43H519.93v-1.06a2.94,2.94,0,0,0,.94-.12,1.52,1.52,0,0,0,.66-.54,1.83,1.83,0,0,0,.33-1.15,4.72,4.72,0,0,0-.39-1.73,10.67,10.67,0,0,0-1-1.89l-2.78-4-1.24,1.19v5.33a4.81,4.81,0,0,0,.18,1.4,2,2,0,0,0,.65,1,2.2,2.2,0,0,0,.74.41,3.12,3.12,0,0,0,.87.11v1.06H506.43v-1.06a2.33,2.33,0,0,0,1.74-.76,1.94,1.94,0,0,0,.43-.7,3.51,3.51,0,0,0,.16-1.2c0-.36,0-.61,0-.75V386.27a4.75,4.75,0,0,0-.23-1.77,1.87,1.87,0,0,0-.8-.83,2.45,2.45,0,0,0-1.2-.32v-1.06l10-.51V397.4l5.24-5.12a7.24,7.24,0,0,0,.59-.59.87.87,0,0,0,.17-.73c-.06-.31-.31-.54-.76-.68a1.58,1.58,0,0,0-1-.11v-.95h11.41v.9a13.72,13.72,0,0,0-2.48.44,15.36,15.36,0,0,0-2.4,1,15.8,15.8,0,0,0-1.94,1.15,13.7,13.7,0,0,0-1.69,1.48l2.79,3.9a35.78,35.78,0,0,1,2.06,3.71c1.1,2.22,1.77,3.54,2,3.95a5.87,5.87,0,0,0,1.89,2.33,2.23,2.23,0,0,0,.6.2l.54.1Z" transform="translate(-8.7 -232)"/><path class="cls-7" d="M575.51,402.49a7.09,7.09,0,0,1-3.34,5.12,11.31,11.31,0,0,1-6.4,1.82H547.45v-1.06a2.33,2.33,0,0,0,1.73-.7,2.42,2.42,0,0,0,.48-.89,3.41,3.41,0,0,0,.17-.93V386.19c0-.45,0-.74,0-.87a2.31,2.31,0,0,0-.48-1.09,2.73,2.73,0,0,0-.76-.67,1.94,1.94,0,0,0-.93-.21v-1.06h19.43a14.83,14.83,0,0,1,3.1.49c2.06.68,3.09,1.93,3.09,3.73q0,2.21-2.58,4.18c-1.73,1-2.61,1.55-2.63,1.57l-1.52.7a9.78,9.78,0,0,1,2.33.65,12.42,12.42,0,0,1,4.34,2.49,7,7,0,0,1,2.36,5.26v.4a3,3,0,0,1,0,.41A2.14,2.14,0,0,0,575.51,402.49Zm-8.76-1.36a6.42,6.42,0,0,0-1.17-3.71,8.14,8.14,0,0,0-2.19-2.14,4.76,4.76,0,0,0-1.17-.71l-4,1.38v9.27a2.24,2.24,0,0,0,.07.66.8.8,0,0,0,.23.37,1.48,1.48,0,0,0,1.14.44h2a4.83,4.83,0,0,0,3.25-1.28A5.35,5.35,0,0,0,566.75,401.13ZM565,387.63q0-1.65-2-2.22a8.9,8.9,0,0,0-2-.25c-.42,0-.73,0-.95,0a1.88,1.88,0,0,0-1.4.69,2.42,2.42,0,0,0-.36,1.34V393l1.35-.44a17.3,17.3,0,0,0,2.66-1.24C564.1,390.21,565,389,565,387.63Z" transform="translate(-8.7 -232)"/><path class="cls-7" d="M601.23,409.43H593.7a2.09,2.09,0,0,1-1-.18,2.24,2.24,0,0,1-.74-.72,3.85,3.85,0,0,1-.46-1,2.22,2.22,0,0,1-.16-1,6.6,6.6,0,0,1-3,2.52,10.32,10.32,0,0,1-4.24.9,8.62,8.62,0,0,1-3.66-.76,4.31,4.31,0,0,1-2.25-2.15,5.39,5.39,0,0,1-.44-1.28,6.42,6.42,0,0,1-.13-1.26q0-3,3.29-5.29a20.69,20.69,0,0,1,8.64-3.06l1.65-.25,0-1.35a2.54,2.54,0,0,0-.81-1.93,2.73,2.73,0,0,0-1.53-.82c-.48-.05-.8-.07-1-.07h-.38a7.6,7.6,0,0,0-5.25,2.19,8.21,8.21,0,0,0-1.17,1.25,8.79,8.79,0,0,0-.84,1.49l-.79-.13.87-7.21.43.31.42.25a1.26,1.26,0,0,0,.67.14,14.94,14.94,0,0,0,2.93-.57c1-.27,1.71-.43,2.06-.49.7-.12,1.46-.24,2.26-.34a19.79,19.79,0,0,1,2.18-.14,11.48,11.48,0,0,1,2.84.32,9.65,9.65,0,0,1,2.61,1.14,4.73,4.73,0,0,1,1.7,2A7,7,0,0,1,599,395v9.68c0,.18,0,.35,0,.51s0,.32,0,.46a4.28,4.28,0,0,0,.09.94,2.69,2.69,0,0,0,.41.84,2.08,2.08,0,0,0,.66.64,6.08,6.08,0,0,0,1.06.38Zm-9.92-9.36v-1.76c-.38-.22-1.28,0-2.71.73a5.65,5.65,0,0,0-3.2,3.58,3.15,3.15,0,0,0-.08.71,2.76,2.76,0,0,0,.6,1.76,2,2,0,0,0,1.62.76,3.35,3.35,0,0,0,1-.17,3.65,3.65,0,0,0,2-2.07A8.12,8.12,0,0,0,591.31,400.07Z" transform="translate(-8.7 -232)"/><path class="cls-7" d="M629.64,409.43H617.31v-1a4.27,4.27,0,0,0,.78-.21,2.57,2.57,0,0,0,1.38-1.45,3.92,3.92,0,0,0,.22-1.38v-9.22a4.49,4.49,0,0,0-.53-2.44,1.58,1.58,0,0,0-1.37-.81,4.06,4.06,0,0,0-2.79,1.52,5,5,0,0,0-1.22,2.67,13,13,0,0,0-.19,2.28v5.49a4.72,4.72,0,0,0,.32,1.71,3,3,0,0,0,.84,1.25,2.45,2.45,0,0,0,1.34.56v1.06H603.72v-1c.38-.11.61-.19.68-.22a2,2,0,0,0,.57-.41,2.6,2.6,0,0,0,.73-1.44,6.9,6.9,0,0,0,.11-1.43l.06-11.71a5.67,5.67,0,0,0-.11-1.17,2.16,2.16,0,0,0-.84-1.41,2.62,2.62,0,0,0-.57-.23,3.16,3.16,0,0,0-.68-.07V389.2l8.87-.57a6.65,6.65,0,0,1,.39.82c.1.25.2.53.3.82s.19.64.29,1a5.3,5.3,0,0,1,.15,1.37,5.24,5.24,0,0,1,1.47-1.55,10.53,10.53,0,0,1,6.8-2.74,11,11,0,0,1,1.25.08,4.59,4.59,0,0,1,3.22,2,6.41,6.41,0,0,1,1.06,3.74v12a2.14,2.14,0,0,0,.79,1.71,1.6,1.6,0,0,0,.61.38,3.13,3.13,0,0,0,.77.08Z" transform="translate(-8.7 -232)"/><path class="cls-7" d="M657.54,409.43H641.92a9.59,9.59,0,0,1-6.86-2.63,9.21,9.21,0,0,1-2.87-7,10.63,10.63,0,0,1,2.41-7.29,10.86,10.86,0,0,1,5.4-3.17,19.73,19.73,0,0,1,5.39-.71c.92,0,1.65,0,2.17.08a1.27,1.27,0,0,1,.41.09v-2.63a4,4,0,0,0-.13-1.13,2.29,2.29,0,0,0-.55-.85,2.47,2.47,0,0,0-1-.6,3.1,3.1,0,0,0-.89-.24v-1.06l10.14-.46V406a4,4,0,0,0,.07.78,2.51,2.51,0,0,0,.29.68,2,2,0,0,0,1.6,1ZM648,405.6v-14c-.56,0-1.06,0-1.5.05a7.62,7.62,0,0,0-1.48.3,5.69,5.69,0,0,0-3.35,3,10.9,10.9,0,0,0-1.23,5.12,8.93,8.93,0,0,0,.92,4.23,5,5,0,0,0,3,2.55,3.32,3.32,0,0,0,.84.14,3.59,3.59,0,0,0,2.06-.79Z" transform="translate(-8.7 -232)"/></svg>