<?xml version="1.0" encoding="utf-8"?>
<!-- Generator: Adobe Illustrator 22.0.1, SVG Export Plug-In . SVG Version: 6.00 Build 0)  -->
<svg version="1.1" id="Layer_1" xmlns="http://www.w3.org/2000/svg" xmlns:xlink="http://www.w3.org/1999/xlink" x="0px" y="0px"
	 viewBox="0 0 792 612" style="enable-background:new 0 0 792 612;" xml:space="preserve">
<style type="text/css">
	.st0{fill:#6E1011;}
	.st1{fill:#FEC23A;}
	.st2{fill:#F89841;}
</style>
<g>
	<g id="XMLID_1_">
		<g>
			<path class="st0" d="M79,310.8l-29.1-69.7H20.1v25.1v67.6h-0.2v25.1h28.2v-25.1c0-0.2,0-0.3,0-0.4v-29L71,358.9h16l22.9-54.5
				v28.2c0.1,0.2,0.1,0.4,0.1,0.6v25.7h28.1v-25.1v-67.6v-25.1h-30L79,310.8z"/>
		</g>
	</g>
</g>
<g id="Layer_3">
	<path class="st0" d="M25,351.7l-9.6-6.8l-2.2,3.2c-0.1-0.1-0.2-0.1-0.3-0.2c-0.6-0.5-1.4-0.8-2.2-0.5c-1.2,0.4-2.2,1.8-1.7,3.1
		c0.3,0.9,1,1.7,1.8,2L20,359L25,351.7z"/>
	
		<rect x="62.7" y="341.2" transform="matrix(0.6571 -0.7538 0.7538 0.6571 -238.7573 172.3919)" class="st0" width="14.9" height="14.9"/>
	
		<rect x="117.1" y="318" transform="matrix(0.5747 -0.8183 0.8183 0.5747 -213.3643 237.2426)" class="st0" width="8.9" height="11.8"/>
	<path class="st0" d="M105.5,344.9l-1.9,2.7c-0.2-0.1-0.5-0.2-0.8-0.3c-0.3-0.1-0.5-0.3-0.8-0.3c-0.8-0.1-1.5-0.1-2.2,0.4
		c-0.6,0.5-1,1.2-1,2c0,1.3,0.7,2,1.6,2.7l0,0l9.6,6.8l5.1-7.3L105.5,344.9z"/>
	<path class="st0" d="M131.2,236.3c-0.7-0.7-1.4-1.4-2.2-2c-1.2-1.2-3-3.1-4.8-1.8c-0.6,0.5-1,1.1-1.2,1.8c-0.3,0.7-0.3,1.6,0,2.4
		c0.4,1.2,1.1,2,1.9,2.7l-1.6,2.2l9.6,6.8l5.1-7.3L131.2,236.3z"/>
	
		<rect x="38" y="235.8" transform="matrix(0.5747 -0.8183 0.8183 0.5747 -179.6984 137.5216)" class="st0" width="8.9" height="11.8"/>
</g>
<g id="Layer_4">
</g>
<g id="Layer_2_1_">
	<path class="st1" d="M126.8,324.7V257l0,0v-25h-30l-29.1,69.7L38.6,232H8.9v25.1l0,0v67.7H8.7v25.1h28.2v-25.1c0-0.1,0-0.3,0-0.4
		v-29l22.9,54.5h16l22.9-54.5v28.2c0,0.2,0.1,0.4,0.1,0.6v25.7H127v-25.1h-0.2V324.7z"/>
</g>
<g id="Layer_5">
	<g>
		<g id="XMLID_3_">
			<g>
				<path class="st2" d="M127.6,324.7v25.1H99.4v-25.7c0-0.2,0-0.4-0.1-0.6v-28.2l-22.9,54.5h-16l-22.9-54.5v29c0,0.1,0,0.2,0,0.4
					v25.1H9.3v-25.1h0.2v-67.6V232h29.8l29.1,69.7L97.5,232h30v25.1l0,0L127.6,324.7L127.6,324.7z"/>
			</g>
		</g>
	</g>
</g>
</svg>
